<?xml version="1.0" encoding="UTF-8" standalone="no"?>
<!-- Created with Inkscape (http://www.inkscape.org/) -->

<svg
   xmlns:dc="http://purl.org/dc/elements/1.1/"
   xmlns:cc="http://creativecommons.org/ns#"
   xmlns:rdf="http://www.w3.org/1999/02/22-rdf-syntax-ns#"
   xmlns:svg="http://www.w3.org/2000/svg"
   xmlns="http://www.w3.org/2000/svg"
   xmlns:sodipodi="http://sodipodi.sourceforge.net/DTD/sodipodi-0.dtd"
   xmlns:inkscape="http://www.inkscape.org/namespaces/inkscape"
   width="873.57739"
   height="899.25299"
   id="svg6055"
   version="1.1"
   inkscape:version="0.48.5 r10040"
   sodipodi:docname="kitten.svg"
   inkscape:export-filename="/home/goodi/kitten.png"
   inkscape:export-xdpi="89.974678"
   inkscape:export-ydpi="89.974678">
  <defs
     id="defs6057" />
  <sodipodi:namedview
     id="base"
     pagecolor="#ffffff"
     bordercolor="#666666"
     borderopacity="1.0"
     inkscape:pageopacity="0.0"
     inkscape:pageshadow="2"
     inkscape:zoom="0.7"
     inkscape:cx="344.57702"
     inkscape:cy="310.29374"
     inkscape:document-units="px"
     inkscape:current-layer="layer1"
     showgrid="false"
     fit-margin-top="0"
     fit-margin-left="0"
     fit-margin-right="0"
     fit-margin-bottom="0"
     inkscape:window-width="1676"
     inkscape:window-height="1046"
     inkscape:window-x="0"
     inkscape:window-y="0"
     inkscape:window-maximized="0" />
  <metadata
     id="metadata6060">
    <rdf:RDF>
      <cc:Work
         rdf:about="">
        <dc:format>image/svg+xml</dc:format>
        <dc:type
           rdf:resource="http://purl.org/dc/dcmitype/StillImage" />
      </cc:Work>
    </rdf:RDF>
  </metadata>
  <g
     inkscape:label="Layer 1"
     inkscape:groupmode="layer"
     id="layer1"
     transform="translate(1579.4516,224.53081)">
    <path
       style="fill:none;stroke:#000000;stroke-width:4;stroke-miterlimit:4;stroke-opacity:1;stroke-dasharray:none"
       d="m -1166.625,-222.5 c -26.2897,1.63267 -46.6658,20.66278 -65.0211,37.66077 -13.1109,11.94043 -25.6724,28.5076 -45.0292,28.93509 -14.6782,1.13867 -29.6915,2.17737 -43.6685,6.43539 -4.8007,-0.96677 -9.5632,2.20782 -14.0624,0.0937 -3.6863,-0.5174 -5.7479,4.79112 -9.25,2.625 -3.8681,-1.30871 -8.2906,0.44178 -10.375,3.375 -5.3273,-0.56875 -14.1079,-1.35254 -15.8126,4.96875 -12.8197,1.10668 -25.4562,6.13383 -36,13.375 -1.2622,1.08895 -0.1064,3.86879 -2.4687,1.96875 -10.7088,-5.0416 -20.7734,-12.07357 -32.9123,-13.59814 -26.8986,-5.95022 -54.7152,-7.45971 -81.119,-15.49561 -7.6496,-1.40954 -17.6751,-5.74677 -24.375,0.15625 -9.8186,10.77501 -8.9061,26.68 -9.387,40.34357 0.2802,36.312782 15.4921,72.195673 42.3752,96.52785 3.5393,2.702725 5.6682,5.7740916 0.8556,8.28483 -11.8294,11.0027021 -27.2032,17.666277 -43.0312,20.125 -3.0017,1.521794 -3.392,5.607545 -1.7188,8.25 -5.7172,1.004946 -14.8683,1.93666 -15.9375,8.9375 0.2415,1.87656 2.1025,3.114405 -0.6875,3.71875 -4.168,1.822277 -3.9761,7.549086 -1.0938,9.78125 -2.6624,5.651353 4.4603,8.72981 8.75,9.625 10.3256,4.141841 22.4838,7.309486 31.4688,12.78125 -2.7907,3.781128 0.4994,8.320143 4.5312,9.09375 4.0016,1.156793 7.4495,3.515592 9.3954,7.075068 24.0639,19.403702 51.7665,34.599812 81.3509,43.656002 11.509,3.56863 24.2864,5.20894 34.0975,12.55018 4.4789,9.27637 -0.9931,19.61745 -4.9883,28.09232 -3.703,7.11498 -6.0436,14.82049 -7.2305,22.59518 -4.7994,8.12659 -14.5508,11.28715 -21.6924,16.97188 -13.0899,8.27356 -25.7149,17.70439 -35.12,30.21562 6.4682,1.88826 13.361,1.75743 19.8124,0.0312 -9.2494,10.58813 -18.6146,24.6896 -14.1874,39.28125 3.4743,5.58204 10.7815,1.43193 14.5312,-1.65625 1.6889,-0.76085 -3.1255,6.38965 -3.875,8.6875 -2.0849,5.5154 -5.6769,11.58128 -4.2812,17.5 4.1104,6.37045 13.6057,3.1581 18.0937,-1.21875 -3.5016,11.26421 -8.3085,24.71045 -2.1563,35.875 2.9913,3.30872 8.4258,2.57701 11.4063,-0.3125 -1.1671,16.42649 0.1249,35.78906 14,46.6875 3.7748,-2.95852 6.4897,-8.35823 8.0625,-11.90625 3.2242,14.33885 8.8887,29.6646 21.3438,38.34375 1.8726,0.66753 4.4228,-0.57109 4.058,2.50319 15.2281,43.04482 36.6168,83.88982 51.7232,126.80931 3.8465,12.65679 5.7452,25.90357 5.9375,39.21875 -10.6629,-0.64362 -23.8149,-3.48435 -32.5,4.4375 -9.1119,10.11203 -7.9295,24.92611 -7.9687,37.59375 1.164,13.37766 12.4882,23.99919 25.4374,26.1875 4.338,1.25082 9.1573,1.71078 13.4376,2.09375 0.8246,12.4168 12.0828,22.32185 24.4687,22.0625 16.887,1.50593 34.114,0.23123 50.718,3.75872 18.4682,1.33262 36.8668,-8.2863 46.1257,-24.32122 7.7097,-10.90333 12.7039,-24.12139 19.5,-35.0625 18.1246,1.91514 36.9682,-0.34219 54.75,1.9375 1.8338,2.85831 7.2654,5.00479 3.2558,8.38205 -6.0754,9.34839 -5.0187,22.50674 1.3692,31.36795 6.0153,6.4066 15.8291,5.25471 23.7494,7.28023 31.817,4.59861 66.0027,2.30965 94.8132,-12.59273 7.3403,-4.01028 13.60181,-10.00521 19.37495,-15.6875 14.91223,-0.32862 30.59374,-6.67065 38.30885,-20.11052 3.76593,-5.46693 6.36383,-12.06025 8.3474,-18.10823 11.58959,6.46474 24.47245,16.88019 38.625,12.75 2.81716,-2.00431 3.00043,-5.9665 1.78125,-8.9375 14.33348,1.58479 29.78985,2.85397 43.40625,-2.59375 2.94182,-1.82357 4.97987,-5.78522 3.375,-9.125 15.49574,-2.61681 31.28756,-8.73306 42.9375,-19.5625 1.24835,-1.82457 0.48327,-4.32545 -1.3125,-5.5 30.43359,-17.17758 52.76795,-45.08453 73.625,-72.46875 15.09512,-23.40592 17.81115,-51.94152 25.08449,-78.3044 6.0404,-25.70877 9.23368,-53.97784 -1.45949,-78.8206 -12.69777,-36.10117 -39.14646,-64.68847 -62.96875,-93.875 -10.7531,-14.26642 -18.70506,-32.74642 -13.59375,-50.6875 1.63521,-8.60883 12.37649,-9.54031 18.21199,-13.99614 43.16183,-24.55282 73.9964,-72.82244 71.3725,-123.503039 -0.41045,-14.813828 -3.56881,-29.423272 -5.08449,-43.938321 3.6466,-4.102206 -0.20151,-9.7733465 1.53125,-14.53125 0.95269,-13.154159 5.33729,-27.073731 1.0625,-40.0625 -1.58263,-1.59096 -4.08318,-1.520322 -2.84375,-4.65625 0.12016,-5.241137 1.62626,-13.21178 -3.6875,-16.0625 -5.53223,-1.244554 -6.51917,6.225398 -7.1875,9.46875 -0.85315,-9.075638 -3.96885,-17.65798 -8.59375,-25.4375 -4.04617,14.491181 -0.71912,32.178724 -12.875,43.3125 -16.25043,16.167809 -40.15278,19.55249 -61.59827,24.044612 -35.83711,5.565055 -73.42187,4.054477 -107.52673,17.830388 -40.04256,13.803409 -75.39079,39.312269 -103.15625,71.0625 -12.3924,13.037369 -21.1429,28.88024 -31.3125,43.5625 -12.9465,22.8013 -10.3711,50.39216 -10.0313,75.71875 2.189,40.0195 19.1683,79.35713 49.2685,106.08197 29.98096,28.07247 68.35215,44.54203 103.4503,65.13678 16.1339,10.34588 28.63915,28.29598 27.17026,48.0936 -0.42498,41.30021 -35.05259,77.69263 -75.32651,83.7814 -17.10252,-48.71871 -46.70655,-93.05149 -84.03125,-128.6875 -24.1305,-22.75141 -52.0272,-41.88392 -71.8312,-68.52267 -27.5103,-41.46305 -30.2248,-95.02137 -61.9925,-134.09262 -6.4064,-8.69567 -15.872,-14.43278 -21.2633,-23.94432 -6.5866,-10.19844 -20.7874,-15.84894 -21.7567,-29.12789 -1.0667,-4.42309 -5.4106,-9.87536 -0.3126,-13.4375 10.6117,-11.424294 26.8613,-14.66523 40.1168,-22.175411 45.1792,-21.672256 90.0749,-50.870248 114.1645,-96.293339 7.5274,-14.167678 19.6218,-25.645643 25.5625,-40.625 1.256,-3.72978 -1.8326,-8.337648 -5.9375,-7.6875 2.7111,-3.270427 5.4302,-10.088614 0.6875,-12.59375 -9.4636,-1.589779 -17.1448,7.062517 -26.7188,5.21875 -13.4774,0.393614 -27.2133,4.669319 -40.5,2 -2.8107,-7.415618 -12.1733,-6.481676 -18.125,-9.84375 -3.9191,-1.808378 -10.5987,-2.389512 -12.0624,-6.8125 1.0957,-10.39262 8.02,-19.03752 8.9687,-29.53125 6.0758,-29.52511 4.1512,-63.30225 -14.6563,-87.96875 -5.3725,-6.82022 -12.9063,-13.34714 -22.1562,-12.84375 z"
       id="path6853"
       inkscape:connector-curvature="0" />
    <g
       id="g6796">
      <path
         sodipodi:nodetypes="csscccsscscssscssscsccsscccscscsscssssssscsscsscsscssscscccscsssscsscssssssssscssssccscsccsssssssssscscssssscccsccsssscccssssssssscssssssssscssssssccsscsssssscsccsssssssssssssscsssscsccsssscssssssssssscsscsscccsscsccssssscssccssccsssscsssscssssssssssscsssccsscccsssssscccssssscccccscccscscscccssscsssscsscccscccccccccssccccscsscssscsccssssccsscsssccccssssccccscscsscscscssscccsssssssssssssscscccsscccccsssssssssssscsscssccsssssscccccsscssscssscscssccsssccsscscsscsssssccssscssssscssssccscsccssscccssssscssscscsscsccsssscscsssssssccsssssssssscssssscsssscccsscssssccsscssssssscccssssssssccsssccccscssccsssccccssccsscsscsssssccssccscsssssssssscscssssssscscscsssssssssssscsccsssssscsccsscscssscscccssssccsscsccsccscsssssssscssscscccccccssssccssccsscssccsscsssscsccscscccsccccscccssssssscscscsscscccssscscscsscsscsscsccssccccsscssssssssscscccsscccccsccsscccscsccsscccsssscsssssscsssssscsssscccsssccccssscssccssscscccscscsssssssssssssssssccscsscccsscsssssssscsssccssssccscsccscc"
         inkscape:connector-curvature="0"
         id="path6139-4"
         d="m -1264.0227,667.36291 c -2.0075,-0.74022 -10.0506,-1.27472 -23.7997,-1.58143 -22.0847,-0.4927 -26.5984,-1.21474 -32.5143,-5.2015 -3.8278,-2.57955 -6.6472,-7.71155 -7.3568,-13.39155 l -0.5684,-4.54887 -4.0111,-0.0151 c -5.8229,-0.0218 -15.418,-2.24283 -20.562,-4.75955 -6.2777,-3.0714 -11.1521,-8.64592 -12.9411,-14.79975 -1.7851,-6.14062 -1.2766,-23.41969 0.888,-30.17642 3.7294,-11.64064 7.8787,-13.8799 24.4866,-13.2148 6.0725,0.24318 11.7835,0.74953 12.6911,1.12521 1.5904,0.65827 1.6307,0.26169 1.1112,-10.92876 -0.9105,-19.61329 -5.3791,-36.35104 -16.6168,-62.24035 -21.7574,-50.12442 -31.2918,-72.69995 -35.9026,-85.00973 -2.9014,-7.74606 -5.6928,-15.1507 -6.2032,-16.45478 -0.7632,-1.94982 -1.3044,-2.27657 -3.0467,-1.83929 -2.7526,0.69087 -6.057,-2.35705 -11.496,-10.60401 -4.7189,-7.15507 -8.7519,-18.59618 -10.7681,-30.5477 -0.756,-4.48133 -1.542,-8.3153 -1.7466,-8.5199 -0.2046,-0.20462 -1.5698,3.46193 -3.0337,8.14788 -1.4639,4.68596 -3.4486,9.49355 -4.4104,10.68354 l -1.7488,2.16361 -2.8727,-3.23282 c -5.4463,-6.12899 -8.0068,-19.0446 -7.0798,-35.71221 0.3177,-5.71194 0.7913,-11.26161 1.0524,-12.3326 0.8493,-3.4825 -1.2756,-2.06594 -4.1768,2.78446 -3.3726,5.63868 -7.156,7.82115 -9.0554,5.22362 -3.5115,-4.8023 -2.6248,-15.43325 2.6251,-31.47056 2.2376,-6.83544 3.8806,-12.61585 3.651,-12.84536 -0.2295,-0.2295 -2.9785,1.96541 -6.1089,4.87761 -3.1304,2.91219 -6.6897,5.67436 -7.9095,6.13815 -2.8879,1.09798 -7.0495,1.07992 -7.7377,-0.0336 -1.0868,-1.75842 2.4953,-11.10955 9.2305,-24.09647 3.7908,-7.30938 6.6861,-13.49598 6.4341,-13.74799 -0.6631,-0.66302 -4.2348,1.84158 -9.7535,6.83935 -4.3433,3.93335 -9.16,6.78407 -11.4625,6.78407 -1.5463,0 -2.0861,-6.33868 -0.993,-11.66209 1.5524,-7.56014 5.397,-14.11292 14.4045,-24.55141 4.377,-5.07231 7.8381,-9.35483 7.6914,-9.51674 -0.1467,-0.16191 -3.9415,0.93586 -8.4329,2.43947 -5.1011,1.70774 -9.4169,2.63032 -11.4984,2.45799 l -3.3322,-0.27586 5.5862,-5.96243 c 3.9001,-4.16283 9.5056,-8.52505 18.572,-14.45282 28.7361,-18.78807 28.6387,-18.69493 29.9714,-28.64782 0.663,-4.95102 1.9666,-8.58196 5.9998,-16.71076 3.0171,-6.08074 5.5363,-12.49598 6.078,-15.4775 1.0341,-5.69175 0.3784,-12.97905 -1.4238,-15.82236 -2.2099,-3.48665 -12.0609,-7.81459 -25.3389,-11.13239 -28.6072,-7.14814 -54.333,-19.32745 -81.9215,-38.78382 -9.099,-6.41696 -10.983,-8.17686 -10.4356,-9.74841 0.1836,-0.52701 -2.5535,-2.22707 -6.0824,-3.77792 -3.529,-1.55085 -6.4163,-3.0864 -6.4163,-3.41231 0,-1.29069 2.1925,-2.67109 4.284,-2.69717 2.1653,-0.027 2.1742,-0.0533 0.476,-1.39451 -3.4539,-2.72773 -15.8756,-8.1514 -29.3746,-12.82579 -7.5882,-2.6276 -14.1554,-5.13623 -14.5939,-5.57474 -1.3412,-1.34115 0.092,-2.49642 3.9462,-3.1803 l 3.6736,-0.6519 -4.6948,-1.39135 c -2.5821,-0.76524 -4.8456,-1.84403 -5.03,-2.3973 -0.5849,-1.75457 3.4709,-3.51256 9.5164,-4.12496 6.6171,-0.67032 6.9583,-1.69119 0.8681,-2.59785 -4.0044,-0.59614 -6.2851,-1.70483 -6.2851,-3.05528 0,-1.23352 5.602,-3.32529 11.6835,-4.36251 8.3915,-1.43123 9.0015,-1.88059 5.7221,-4.21569 -4.1393,-2.94749 -3.2188,-5.26156 2.093,-5.26156 3.0148,0 15.6957,-4.16334 21.1773,-6.95288 6.4899,-3.30265 14.4432,-9.00207 20.2562,-14.51588 2.6629,-2.52593 4.8417,-4.77476 4.8417,-4.9974 0,-0.22266 -4.0279,-4.387203 -8.9509,-9.254553 -25.1051,-24.82128 -37.5652,-52.92975 -39.2179,-88.470667 -0.9449,-20.31876 2.0116,-35.55271 7.9896,-41.16875 1.8676,-1.75455 2.6217,-1.8797 8.3508,-1.38597 3.4638,0.29851 11.9448,2.06823 18.8467,3.93271 15.876,4.28872 22.0252,5.48869 45.0032,8.78189 31.4395,4.5059 41.9219,7.34479 53.9523,14.61149 8.0423,4.85777 13.703,6.72572 17.4966,5.7736 l 2.5438,-0.63845 -2.3786,-1.73265 c -1.3082,-0.95295 -2.3785,-2.1122 -2.3785,-2.57609 0,-1.32679 16.1971,-8.52152 23.2891,-10.34499 3.5271,-0.90688 8.0491,-1.64887 10.049,-1.64887 3.3859,0 3.6083,-0.14495 3.2331,-2.10748 -0.3532,-1.84798 -0.014,-2.18047 2.7565,-2.70018 1.7376,-0.32598 5.292,-0.41583 7.8987,-0.19967 4.396,0.36455 4.7761,0.24669 5.2464,-1.62705 0.5737,-2.286 2.7233,-2.60047 7.1729,-1.04935 2.5199,0.87844 3.0165,0.74854 5.2241,-1.36651 2.1239,-2.03478 2.6667,-2.19535 4.1951,-1.24083 1.4215,0.88773 2.4128,0.87949 5.2089,-0.0433 2.0401,-0.67331 4.7162,-0.90273 6.5397,-0.56064 2.0407,0.38285 3.922,0.14697 5.5525,-0.6962 3.9116,-2.02278 15.0903,-3.86682 29.5492,-4.87443 25.5168,-1.77821 29.4443,-3.67031 51.0027,-24.57126 28.137,-27.2789 43.946,-38.2156 60.0482,-41.54161 11.2154,-2.3166 14.346,-1.9586 20.0907,2.29751 8.6674,6.42142 15.5083,17.06819 19.8844,30.94701 7.7223,24.49083 5.9711,57.78916 -4.227,80.37578 -2.1095,4.672087 -3.0807,8.090467 -3.0807,10.843907 0,3.83568 0.1835,4.13734 3.9808,6.54554 2.1895,1.3885 8.9818,4.13487 15.094,6.10305 10.3404,3.32965 11.1318,3.73927 11.3809,5.89037 0.2058,1.77786 0.8674,2.4391 2.864,2.86267 4.7895,1.01606 14.9736,0.76675 25.2699,-0.6186 5.6173,-0.7558 13.7184,-1.49028 18.0024,-1.63218 6.2744,-0.20782 8.7507,-0.70752 12.7347,-2.56976 2.7202,-1.27148 6.3673,-2.54246 8.1048,-2.82442 3.016,-0.48943 3.1304,-0.41868 2.5282,1.56398 -0.8595,2.82941 -3.7262,7.44922 -6.7823,10.92994 -1.3947,1.58858 -2.3218,3.10251 -2.06,3.36429 0.2618,0.26179 2.3104,-0.33547 4.5524,-1.32723 5.0178,-2.2196 7.3185,-2.31036 7.3176,-0.28868 0,2.95482 -5.1404,11.99621 -10.6991,18.82344 -3.1003,3.80796 -9.2113,13.08465 -13.5799,20.61488 -4.3685,7.53023 -10.2391,16.788423 -13.0458,20.573753 -23.7643,32.05091 -59.0291,57.19775 -116.2911,82.92562 -7.6159,3.42184 -15.9781,7.66255 -18.5827,9.4238 -5.4392,3.67803 -11.5616,11.18932 -10.7226,13.1549 0.3048,0.71399 1.5964,4.99794 2.8702,9.51989 1.2739,4.52195 2.9569,9.43874 3.7402,10.92619 0.7832,1.48745 5.3741,6.34942 10.2021,10.80438 6.1721,5.69531 9.5051,9.51707 11.2272,12.87356 1.6119,3.14174 4.1099,6.10498 7.3071,8.66813 9.4086,7.54285 19.7695,21.32376 27.2227,36.20863 5.3208,10.62641 10.2327,23.06849 18.6758,47.30683 9.184,26.36505 13.8255,37.93191 19.9001,49.59191 9.7832,18.7788 19.3982,29.18006 56.2539,60.85446 23.4752,20.17502 36.8786,33.04443 46.4792,44.62757 19.2599,23.23718 34.5634,46.25813 46.0062,69.2071 4.4701,8.96483 11.9071,26.73785 14.3401,34.27022 1.0359,3.20691 1.0905,3.23848 4.6594,2.69396 6.7739,-1.03354 18.3122,-4.72652 25.2473,-8.0807 10.1479,-4.90811 16.8114,-9.50032 24.6444,-16.98394 18.5556,-17.72784 28.588,-40.1954 28.5589,-63.957 -0.019,-15.58446 -4.8007,-27.59666 -15.4025,-38.69336 -8.4185,-8.81154 -16.3619,-14.03607 -39.6596,-26.08497 -61.9406,-32.03378 -91.1353,-56.86147 -109.1993,-92.865 -7.2397,-14.42946 -11.7782,-29.80314 -14.5239,-49.19806 -1.7643,-12.46193 -2.0137,-45.41243 -0.4292,-56.68666 2.103,-14.96318 6.5086,-26.78247 12.5101,-33.5616 1.5677,-1.7709 4.2651,-5.78348 5.9941,-8.91685 7.0501,-12.77623 16.6271,-24.52696 35.2424,-43.24171 26.9014,-27.04523 56.3458,-45.07512 93.8883,-57.49132 21.0478,-6.96103 33.4152,-9.05704 71.6315,-12.14011 18.8594,-1.52145 28.1345,-2.849363 43.0524,-6.163723 27.3275,-6.07148 43.6154,-14.04662 52.372,-25.64324 5.0326,-6.66495 7.3825,-13.23387 8.1244,-22.71189 l 0.6098,-7.78901 1.4607,4.75995 c 0.8034,2.61797 1.7682,9.23863 2.144,14.71257 l 0.6832,9.95262 2.8195,-5.45032 c 1.5507,-2.99767 3.4505,-8.24462 4.2218,-11.65988 1.0564,-4.6777 1.5669,-5.7884 2.0695,-4.50231 1.0498,2.68633 0.8297,15.79537 -0.381,22.69431 -1.1904,6.78327 -0.3617,8.59438 1.188,2.59634 1.5819,-6.12279 1.8022,-6.7072 2.5283,-6.7072 2.3155,0 2.305,13.65166 -0.022,29.1227 -1.1381,7.565793 -1.6087,13.707383 -1.276,16.653903 0.4732,4.19096 0.3871,4.55181 -0.8425,3.53127 -1.2307,-1.02135 -1.3117,-0.6607 -0.7983,3.55377 0.3143,2.57975 1.5491,10.53222 2.7439,17.67214 2.953,17.64562 3.5721,37.0159 1.5664,49.01078 -7.3669,44.05718 -34.776,80.23845 -76.9713,101.60539 -9.6577,4.89049 -10.1967,5.64707 -12.3111,17.28018 -3.183,17.51212 3.734,35.35911 22.3322,57.62144 3.0143,3.60809 9.5697,11.43955 14.5676,17.40323 21.5875,25.75871 34.3002,47.19203 42.4248,71.52724 4.5428,13.60658 5.4851,20.43921 4.9129,35.6243 -0.5342,14.1761 -3.1757,28.40836 -11.4212,61.53757 -10.2944,41.36137 -12.1154,45.13787 -34.853,72.28309 -13.3202,15.90229 -27.8347,30.68483 -36.9795,37.66248 -7.7143,5.88621 -18.4907,12.75827 -23.1506,14.76303 -2.261,0.97272 -4.1109,2.08873 -4.1109,2.48002 0,0.3913 1.8499,0.83015 4.1109,0.97524 2.261,0.14507 4.1024,0.65323 4.0921,1.12922 -0.028,1.30707 -7.6911,6.18697 -16.4247,10.45983 -8.313,4.06707 -18.0074,6.90117 -26.6833,7.8007 -2.936,0.3044 -5.4522,0.65335 -5.5915,0.77544 -0.1393,0.12209 1.1264,1.03602 2.8127,2.03097 4.4512,2.62627 4.1165,4.95522 -1.0448,7.27057 -5.4805,2.45847 -26.0224,3.14232 -38.296,1.27487 -4.5219,-0.68802 -8.3675,-1.12542 -8.5458,-0.97201 -0.1782,0.15342 0.6981,1.49362 1.9473,2.97823 1.3179,1.5662 2.2713,3.76128 2.2713,5.22923 0,2.50533 -0.048,2.52973 -4.9763,2.50938 -5.9446,-0.0246 -11.5624,-2.16994 -21.8739,-8.35356 -4.0342,-2.41922 -8.5741,-5.02606 -10.0886,-5.79296 l -2.7537,-1.39437 -1.4239,4.96802 c -4.0321,14.06786 -12.6758,25.82405 -22.3712,30.42664 -5.5922,2.65477 -13.1812,4.39924 -19.1381,4.39924 -3.1624,0 -3.9176,0.43703 -6.8805,3.9816 -12.1868,14.57943 -37.3028,24.17064 -68.8038,26.27454 -17.9648,1.19985 -41.4934,-0.83862 -55.3066,-4.7918 -4.3688,-1.25031 -4.7333,-1.57944 -6.9236,-6.25215 -1.8617,-3.97178 -2.3119,-6.1964 -2.3119,-11.42318 0,-6.0359 0.2274,-6.84081 3.2454,-11.48396 1.785,-2.74621 3.2454,-5.29391 3.2454,-5.66156 0,-0.36765 -1.7525,-2.38842 -3.8945,-4.49061 -2.142,-2.10219 -3.8943,-4.22789 -3.8941,-4.72378 3e-4,-0.60139 -7.2762,-0.90161 -21.8525,-0.90161 -12.0191,0 -25.4473,-0.28728 -29.8404,-0.63838 l -7.9876,-0.63839 -8.2641,16.391 c -12.6422,25.07427 -20.6207,34.55228 -33.7456,40.08749 -7.7608,3.27303 -21.9158,4.26717 -28.1302,1.97582 z m -9.8593,-5.4672 c -2.9232,-9.63906 -3.5071,-27.04247 -1.0939,-32.60382 3.9576,-9.12038 11.8647,-14.67112 20.8993,-14.67112 2.8649,0 5.9317,0.40451 6.8152,0.89891 1.2962,0.72541 0.6153,0.98875 -3.5277,1.36443 -9.2095,0.83508 -14.7543,5.02364 -19.2015,14.50466 -1.9254,4.10465 -2.2263,5.89185 -2.1859,12.98168 0.062,10.84161 2.0642,16.4014 6.4503,17.90918 4.3507,1.49557 18.5741,1.37545 24.6755,-0.20832 15.7289,-4.08291 19.0415,-7.57524 31.9455,-33.67872 6.1281,-12.39642 16.4499,-30.90463 27.288,-48.93053 23.8584,-39.68111 31.2299,-55.1038 34.2043,-71.56193 1.4748,-8.16091 2.6093,-11.78916 4.5494,-14.54986 2.91,-4.14098 -1.5623,20.56748 -6.0221,33.2706 -4.3854,12.49106 -11.1485,25.70265 -24.6639,48.18039 -7.1223,11.84534 -13.9817,23.34505 -15.2432,25.55491 l -2.2934,4.01792 2.7947,0.47732 c 7.5063,1.28203 17.8323,1.59274 33.8834,1.01956 l 17.6132,-0.62897 -2.0196,-4.97007 c -2.8067,-6.90735 -5.1738,-16.35219 -6.4554,-25.75704 -1.549,-11.36643 -0.6559,-35.28827 1.7376,-46.54681 9.5904,-45.1098 34.2572,-73.61263 72.5815,-83.8689 23.4746,-6.2822 45.5902,-4.87587 54.5683,3.47001 l 3.1093,2.89032 -8.6544,-3.09794 c -10.3589,-3.70804 -19.7358,-4.57189 -31.8199,-2.93141 -30.5294,4.1445 -55.432,20.21451 -70.9018,45.75395 -15.507,25.60096 -21.9679,63.76741 -15.0626,88.97976 6.0199,21.97983 12.212,37.03329 15.6778,38.11372 0.4849,0.15115 3.0163,-1.34413 5.6254,-3.32285 11.2854,-8.55872 24.67,-12.84875 42.0756,-13.4861 19.9953,-0.73216 30.2153,1.91993 48.1816,12.50304 17.7342,10.44644 25.3105,12.85014 38.379,12.17635 25.3627,-1.30764 39.9406,-27.91022 38.0776,-69.48571 -1.5036,-33.55292 -9.1587,-60.62462 -27.0421,-95.63169 -10.1227,-19.81532 -22.3853,-38.56492 -36.7715,-56.22347 -17.3326,-21.2751 -35.2072,-38.87267 -68.4159,-67.35539 -8.3945,-7.19988 -18.5404,-16.31957 -22.5463,-20.26599 -15.2387,-15.01213 -24.0297,-32.34257 -39.1993,-77.27638 -6.8002,-20.143 -14.0909,-38.99885 -18.4045,-47.59948 -7.0968,-14.15002 -21.7009,-33.13625 -27.9897,-36.38831 -2.0424,-1.05613 -2.888,-1.02963 -6.5435,0.20501 -3.4923,1.17954 -6.3075,3.55238 -16.747,14.11524 -13.3164,13.47394 -18.0722,16.71343 -31.7678,21.63901 l -5.3717,1.93194 2.0254,4.0085 c 2.9325,5.80357 6.263,16.89814 8.7293,29.07908 1.1838,5.84658 2.1524,10.95996 2.1524,11.36306 0,0.4031 0.6186,-0.15032 1.3747,-1.22983 2.5098,-3.58312 5.5904,-12.28627 6.7985,-19.20622 0.6558,-3.75664 1.8507,-7.72455 2.6554,-8.81759 1.4053,-1.90905 1.4462,-1.69758 1.0386,5.36896 -0.2753,4.7724 -1.2157,9.60658 -2.6774,13.76284 -2.1663,6.15963 -3.9227,9.62905 -16.4727,32.53847 -14.811,27.0368 -25.8837,57.72289 -30.2916,83.94818 -2.6256,15.621 -3.3457,27.2518 -2.835,45.78893 0.5684,20.63183 1.3606,28.12131 7.9269,74.94067 6.9589,49.61938 7.6841,57.54067 7.7247,84.3809 0.034,22.64106 -1.1342,37.13586 -3.7899,47.01496 -1.0398,3.86777 -0.5156,4.85445 3.5534,6.68934 2.9808,1.34412 5.0891,3.43975 5.0891,5.05832 0,0.25237 -1.6704,-0.25716 -3.712,-1.1323 -9.1601,-3.9265 -21.4659,-4.23772 -34.2025,-0.86501 -8.5347,2.26003 -14.304,5.32303 -19.1409,10.16222 -14.5788,14.5857 -7.2526,46.01306 10.7263,46.01306 l 3.0569,0 -1.8182,-1.81812 c -9.6226,-9.62263 -6.722,-37.60721 4.7607,-45.93099 2.6646,-1.93151 4.3047,-2.44392 7.789,-2.43345 2.4276,0.007 4.998,0.39077 5.7119,0.85219 1.0057,0.64989 0.7426,0.84193 -1.1673,0.8522 -9.8023,0.0527 -18.9241,12.95201 -19.0144,26.88856 -0.1,15.36031 9.1852,22.55086 29.9763,23.21501 2.7688,0.0884 3.2294,-0.13977 2.8445,-1.40904 z m 198.314,-7.00499 c -3.3375,-6.20101 -4.2992,-9.64989 -4.7043,-16.87017 -0.559,-9.96556 1.167,-18.68488 5.3389,-26.96974 1.6778,-3.33196 3.0488,-6.40613 3.0466,-6.83148 -0.01,-1.3232 -11.2261,0.20372 -21.2073,2.88622 -7.2398,1.94576 -9.9825,3.09462 -11.4518,4.79687 -2.9728,3.4443 -4.9021,11.14516 -4.882,19.48635 0.028,11.74197 3.7997,20.22199 10.2328,23.0089 2.7148,1.17605 24.2364,1.62513 23.6271,0.49305 z m 30.814,-1.49783 c 6.7373,-1.72674 19.4683,-7.70835 26.6271,-12.51074 7.6221,-5.11316 14.8639,-11.33684 14.0146,-12.0442 -0.3885,-0.32354 -2.871,-1.24142 -5.5168,-2.03972 -2.6458,-0.79831 -10.8543,-5.0794 -18.2411,-9.51353 -14.5719,-8.74711 -21.941,-11.6326 -31.8241,-12.46116 -6.0168,-0.50444 -6.0902,-0.48465 -8.993,2.42663 -1.6097,1.61436 -3.8021,5.2719 -4.8719,8.12787 -3.8354,10.23863 -3.2357,31.9473 0.9732,35.22985 5.1562,4.02137 17.9954,5.30613 27.832,2.785 z m -64.4799,-4.04613 c -5.7415,-14.21825 -6.5097,-22.17141 -2.8924,-29.94191 1.1849,-2.5452 1.9491,-4.95971 1.6983,-5.36556 -1.4763,-2.38859 -13.2082,8.76777 -16.2268,15.43059 -2.521,5.56465 -2.5005,13.21516 0.048,18.08143 1.7484,3.33793 2.2736,3.68878 6.8845,4.59845 2.7454,0.5416 5.3811,1.12404 5.8571,1.29436 0.476,0.17024 2.1254,0.3403 3.6655,0.37794 l 2.8,0.0684 -1.8347,-4.54358 z m -227.2883,-13.84712 c -0.345,-1.54699 -0.6168,-7.68083 -0.6039,-13.63076 0.03,-13.57769 2.0748,-20.59652 7.7175,-26.48562 4.8169,-5.02724 6.2565,-4.84537 2.7611,0.34882 -4.6062,6.84471 -6.9938,15.61191 -7.0002,25.70407 0,7.15655 0.3111,9.24889 1.8238,12.08889 l 1.8294,3.43443 0.9942,-4.78884 c 4.3082,-20.75276 21.3348,-32.75393 46.5213,-32.79054 l 8.8021,-0.0128 0.5193,-2.37997 c 2.8765,-13.18284 4.9858,-57.6896 3.5506,-74.91871 l -0.6344,-7.61648 -2.3666,0.51979 c -2.1243,0.46657 -2.5328,0.15144 -3.989,-3.07786 -2.5437,-5.64108 -7.8708,-12.78757 -17.6502,-23.6784 -6.1496,-6.84858 -9.3062,-9.76801 -9.9093,-9.16487 -2.1822,2.1822 -4.7755,0.72226 -11.8827,-6.68965 -3.9948,-4.16609 -8.8193,-9.63882 -10.7211,-12.16161 -2.7653,-3.66809 -3.8054,-4.47145 -5.1927,-4.01055 -0.9542,0.317 -3.102,0.75889 -4.7731,0.98198 -4.3151,0.57609 -6.6231,-1.58633 -11.4362,-10.71502 -3.4859,-6.61135 -4.8281,-8.26481 -9.3888,-11.56594 -8.529,-6.17356 -18.4988,-21.48644 -25.6099,-39.33504 l -2.0688,-5.19267 0.3254,4.75995 c 0.5623,8.22266 10.6843,32.67389 41.9172,101.25708 14.545,31.93872 20.2898,52.52836 21.5516,77.24098 l 0.5633,11.03443 -5.1883,0 c -2.8536,0 -8.4323,-0.43657 -12.3971,-0.97015 -17.6542,-2.37588 -23.5522,3.56948 -23.7141,23.90444 -0.08,10.04516 1.224,16.69151 3.7171,18.9478 1.3179,1.19265 1.4035,0.79596 1.1047,-5.12028 -0.6819,-13.50449 5.6892,-25.69964 16.2604,-31.12466 l 2.9837,-1.53115 -3.7527,4.22148 c -4.9197,5.5342 -9.2685,14.80964 -10.5844,22.57497 -0.926,5.46463 -0.8697,6.83124 0.4546,11.03227 1.6927,5.36983 5.2412,8.87369 10.7093,10.57456 5.1506,1.60211 5.4614,1.49338 4.7569,-1.66437 z m 417.0813,-39.55647 c -2.8829,-2.54212 -4.4592,-4.62052 -4.459,-5.8794 2e-4,-1.07099 0.098,-1.94214 0.2167,-1.93588 0.119,0.006 3.9162,0.80606 8.4381,1.77735 14.5031,3.1152 42.1334,3.15807 45.2213,0.0702 0.4021,-0.40205 -1.7219,-1.60883 -4.7199,-2.68174 -6.5049,-2.32794 -8.9773,-3.79585 -10.1808,-6.04455 -0.8634,-1.6134 -0.6151,-1.65651 6.7817,-1.17728 14.5271,0.94116 32.5018,-2.64401 41.0202,-8.1817 l 3.6621,-2.38071 -5.9903,-0.43273 c -3.3529,-0.2422 -6.1332,-0.86697 -6.3148,-1.41904 -0.4616,-1.40303 4.5073,-4.19468 10.5225,-5.91187 13.7168,-3.91583 33.7855,-17.45857 40.0584,-27.03218 1.8415,-2.81061 1.0677,-3.16963 -3.1738,-1.47252 -2.8007,1.12064 -3.8597,1.21676 -4.6516,0.42221 -1.3187,-1.32309 0.5717,-2.77618 10.8827,-8.3656 4.5352,-2.45843 8.6933,-5.41595 9.9724,-7.09293 1.6323,-2.13994 2.3811,-2.58774 2.9252,-1.74917 0.5372,0.82797 1.5809,0.0935 3.9322,-2.76739 1.7605,-2.14197 7.1624,-7.98373 12.0043,-12.98167 17.8743,-18.45073 20.1651,-23.37047 28.4099,-61.01389 1.668,-7.61591 4.4021,-20.07832 6.0758,-27.69424 4.3925,-19.98812 6.0318,-34.13857 5.4141,-46.73404 -0.5913,-12.05719 -2.4657,-19.97121 -8.0963,-34.18508 -9.529,-24.05498 -18.8387,-38.77393 -41.8754,-66.20656 -26.1558,-31.14701 -29.3322,-36.02662 -32.3931,-49.76309 -1.9204,-8.6184 -2.0009,-21.54026 -0.1728,-27.74946 2.3961,-8.1385 5.6862,-11.73653 14.2981,-15.63611 12.3145,-5.57619 14.1338,-6.59905 21.3569,-12.00766 19.2096,-14.38386 34.9026,-34.38346 43.9755,-56.04337 10.1397,-24.20676 12.0905,-41.89627 7.9443,-72.03777 -2.8042,-20.38517 -2.7951,-30.91776 0.04,-46.265813 1.212,-6.56134 2.0882,-14.12165 1.9472,-16.80067 l -0.2564,-4.87096 -3.2784,7.90103 c -3.0398,7.3262 -6.0052,11.6635 -7.1748,10.49399 -0.2694,-0.26945 0.7192,-4.51857 2.197,-9.44247 2.3876,-7.95558 4.4888,-20.05202 3.2839,-18.90517 -0.2501,0.23799 -1.6715,3.37293 -3.1588,6.96652 -1.4873,3.5936 -3.8528,7.87755 -5.2567,9.5199 l -2.5526,2.98609 -0.026,-2.59633 c -0.014,-1.42799 0.5542,-4.50812 1.263,-6.84475 1.3524,-4.45814 1.7497,-11.76295 0.6397,-11.76144 -0.357,4.8e-4 -1.7168,1.90201 -3.0219,4.22563 -5.2782,9.39793 -14.6224,17.39145 -26.9468,23.05188 -14.7909,6.79322 -31.1342,10.221533 -68.043,14.273243 -27.6304,3.03317 -46.1055,5.90528 -60.8854,9.46515 -54.8222,13.20439 -90.6668,35.78221 -127.8509,80.53088 -18.7366,22.54821 -25.5707,34.03647 -30.6268,51.48397 -4.4084,15.21254 -4.7822,47.69397 -0.8167,70.97651 8.885,52.16728 34.2485,85.07223 91.9704,119.31678 5.0659,3.00546 18.3628,10.53097 29.5487,16.72336 40.3632,22.34469 42.08,23.65443 49.3725,37.6662 5.1309,9.85856 6.8814,17.75812 6.8814,31.0533 0,12.63605 -1.3682,20.53348 -5.3087,30.64144 -11.4719,29.42728 -37.9082,52.10916 -69.9969,60.05607 l -9.1094,2.25598 1.5534,5.6254 c 4.2532,15.40262 5.244,24.50189 5.4657,50.19582 l 0.2128,24.66518 3.5968,2.80395 c 5.5691,4.34139 12.9256,8.40531 21.3346,11.78577 9.192,3.69521 10.3775,2.82726 3.9182,-2.86856 z m -353.7327,-103.02562 c -0.048,-8.36958 -0.7232,-15.61112 -2.3804,-25.53063 -2.4343,-14.57106 -6.7875,-46.11307 -8.3265,-60.33069 -1.3542,-12.51062 -1.1289,-39.59817 0.4281,-51.47583 3.6873,-28.12787 13.6397,-57.98272 30.6461,-91.93075 7.478,-14.92756 9.0275,-20.05412 8.503,-28.13333 -0.3712,-5.71792 -1.1345,-8.10621 -7.3517,-23.003 -0.3799,-0.91035 0.021,-0.80421 1.3412,0.3553 1.0356,0.9094 2.098,1.43842 2.3608,1.1756 0.6632,-0.66318 -3.4415,-10.19794 -6.5999,-15.33105 l -2.6149,-4.24964 -5.4706,2.56001 c -11.7478,5.49749 -31.1888,8.70743 -62.3508,10.29483 -9.9715,0.50796 -18.3123,1.10572 -18.5349,1.32837 -0.2227,0.22264 0.027,0.4048 0.5555,0.4048 0.5282,0 3.3005,2.16652 6.1606,4.8145 6.6215,6.13031 8.7456,11.27413 8.7456,21.17883 0,6.68979 -0.09,6.98783 -3.1065,10.3271 -4.4452,4.92029 -10.9139,7.83295 -18.7048,8.42218 -20.0909,1.51946 -29.9514,-11.4563 -23.5646,-31.00954 1.8219,-5.5777 6.642,-12.10761 10.4568,-14.16579 1.7645,-0.95199 3.357,-2.19242 3.539,-2.75649 0.4398,-1.36332 -28.8532,-10.91272 -40.9327,-13.3439 l -9.1657,-1.84472 -4.2391,4.75622 c -4.272,4.79302 -11.3821,10.32145 -29.0477,22.58567 -5.2876,3.67084 -10.5452,7.68269 -11.6836,8.91522 l -2.0697,2.24095 2.1636,-0.64542 c 1.19,-0.35498 5.4362,-1.95471 9.4361,-3.55494 4,-1.60024 8.6422,-3.16646 10.3162,-3.4805 l 3.0436,-0.57099 -2.0886,2.93663 c -1.1488,1.61514 -5.5298,6.6364 -9.7358,11.15835 -9.7254,10.4562 -14.9725,17.7387 -17.0599,23.67778 -2.0144,5.73135 -3.0582,11.80671 -2.0276,11.80196 0.7605,-0.003 5.0018,-3.36807 15.0136,-11.91014 5.3506,-4.56503 11.9152,-8.50703 12.76,-7.66224 0.2476,0.24756 -3.6571,8.74527 -8.6771,18.88381 -9.01,18.19683 -11.846,24.39919 -11.846,25.90729 0,1.25777 6.2915,-1.75003 8.9402,-4.27408 1.3472,-1.28373 4.1581,-4.72292 6.2465,-7.64263 3.7412,-5.23033 8.8821,-10.28893 9.6628,-9.5082 0.7245,0.72452 -1.6056,10.30385 -5.395,22.17955 -5.3488,16.7629 -8.0005,32.01497 -5.566,32.01497 1.6251,0 4.7702,-4.11091 8.6259,-11.27454 3.2366,-6.01338 8.1885,-11.96864 9.1515,-11.00565 0.1609,0.16089 -0.475,3.97403 -1.4132,8.47366 -2.1876,10.49267 -3.0768,30.19562 -1.7746,39.32243 1.0645,7.46096 3.4675,16.02547 4.4963,16.02547 0.8415,0 3.6478,-8.64324 6.463,-19.90524 2.3071,-9.22934 4.1353,-13.44511 6.1691,-14.22554 0.873,-0.33503 1.1292,1.27062 1.1347,7.11278 0.015,16.06165 2.9651,31.40152 8.1084,42.16329 2.8271,5.91546 9.3241,14.27984 11.0918,14.27984 0.5735,0 0.8123,-4.50029 0.6773,-12.76531 -0.2703,-16.5461 -0.1373,-20.1216 0.7483,-20.1216 0.4003,0 1.2175,2.23934 1.816,4.97631 1.7801,8.1393 7.826,26.09359 11.3834,33.80436 4.7002,10.1879 12.0516,20.77167 17.4474,25.11918 1.2925,1.04139 1.3632,0.90966 0.7185,-1.33839 -0.3933,-1.3714 -2.1427,-5.74036 -3.8875,-9.70878 -1.7448,-3.96843 -3.3935,-9.01319 -3.6638,-11.21057 l -0.4914,-3.99525 2.2737,3.22745 c 2.2029,3.12696 3.6654,6.53295 10.3691,24.14787 1.7448,4.58454 4.7154,10.49044 6.6014,13.12422 3.3646,4.6986 8.6047,8.84002 10.4197,8.23501 0.5165,-0.17218 -1.018,-4.14767 -3.5052,-9.08071 -4.3627,-8.65312 -6.2907,-14.98865 -4.5612,-14.98865 0.4791,0 2.8618,3.44926 5.2949,7.66502 6.1013,10.5718 16.3891,24.91398 22.744,31.70738 2.9209,3.12249 5.4798,5.50826 5.6863,5.3017 0.5105,-0.51044 -1.5385,-4.35627 -5.289,-9.9269 -3.5601,-5.28798 -4.3806,-10.38621 -1.4162,-8.79972 0.9356,0.50076 3.2593,3.57835 5.1637,6.8391 1.9044,3.26074 6.8832,9.70506 11.0641,14.32072 14.8307,16.37304 19.2228,21.65721 22.0496,26.52818 3.883,6.69079 4.6093,5.15103 4.5248,-9.59254 z m -67.4378,-245.54718 c 6.3452,-3.30237 9.1033,-7.66963 9.0682,-14.35907 -0.027,-5.16617 -2.6856,-10.34966 -7.8452,-15.29663 -5.0412,-4.83354 -6.8933,-5.7014 -9.3551,-4.38385 -2.6096,1.39662 -6.0837,1.09412 -9.142,-0.79603 l -2.7659,-1.70941 -2.6985,2.79122 c -5.521,5.71085 -9.0221,16.89578 -7.6231,24.35326 0.7429,3.95982 4.2935,8.1206 8.6897,10.18289 4.8113,2.25703 16.6534,1.82952 21.6719,-0.78238 z m -7.933,-38.68828 c 0.6328,-1.64898 -1.4995,-3.30869 -4.2508,-3.30869 -2.7185,0 -4.2349,1.36669 -3.5363,3.18724 0.685,1.785 7.1103,1.88521 7.7871,0.12145 z m 47.9155,-6.15282 c 19.1049,-2.48712 34.611,-7.16399 51.7547,-15.60992 13.887,-6.84152 25.1243,-14.79075 35.7126,-25.26312 4.4585,-4.40966 9.4493,-8.57868 11.0906,-9.26446 1.6413,-0.68579 3.2114,-1.83877 3.489,-2.56217 0.788,-2.0536 -2.7602,-7.00806 -11.9423,-16.67548 -9.2423,-9.73088 -12.4612,-15.04689 -13.8357,-22.85004 -0.4947,-2.80828 -1.2472,-5.10596 -1.6724,-5.10596 -0.4251,0 -0.7729,0.33434 -0.7729,0.74299 0,1.09129 -7.7006,8.93104 -11.5083,11.71635 -8.4172,6.15701 -23.6277,11.56728 -52.5347,18.68615 -28.2772,6.96378 -45.4381,9.1131 -67.3812,8.43919 -15.1409,-0.465 -25.8477,-2.48313 -35.2582,-6.64583 -2.2428,-0.9921 -4.161,-1.70173 -4.2627,-1.57696 -0.1017,0.12477 0.2298,2.67566 0.7366,5.66863 1.1185,6.60468 0.062,13.89751 -3.1035,21.41752 -6.6523,15.80444 -8.3701,20.09105 -8.8712,22.13657 -0.5503,2.24636 -0.5107,2.26596 5.7845,2.86566 8.4594,0.80585 14.3738,2.21426 29.0559,6.91921 11.524,3.69289 26.7461,6.96718 35.7003,7.67919 10.4014,0.82708 28.6074,0.48167 37.8189,-0.71752 z m 68.1982,-41.72621 c 9.0936,-7.09236 12.1682,-10.20866 16.2841,-16.50497 3.6677,-5.61073 4.7395,-4.74487 1.8491,1.49383 -3.6448,7.86688 -15.3263,17.9161 -23.7586,20.43875 -1.19,0.356 1.3414,-2.08643 5.6254,-5.42761 z m -98.2281,-21.00901 c 17.7138,-2.20655 46.5673,-9.1544 68.8029,-16.56758 20.0115,-6.67165 31.1499,-14.24987 36.038,-24.51918 1.3594,-2.85597 2.1463,-5.30134 1.7486,-5.43415 -0.3977,-0.13281 -5.5573,2.26632 -11.4658,5.33141 -11.0817,5.74874 -16.0207,7.69431 -21.9935,8.6637 l -3.4618,0.56186 3.4618,-2.17378 c 3.5206,-2.21073 17.2623,-9.10353 64.4756,-32.34081 28.3456,-13.95101 41.0108,-20.80282 56.2951,-30.4554 24.046,-15.18596 43.3864,-32.15726 56.4955,-49.57507 4.9367,-6.559353 13.5598,-20.337893 13.5628,-21.671493 8e-4,-0.40631 -1.375,0.46996 -3.0575,1.94725 -3.1954,2.80559 -4.3003,3.21576 -5.1143,1.89864 -1.026,-1.66008 0.8246,-3.79307 6.5813,-7.58562 3.9681,-2.61416 7.7339,-6.15134 11.2376,-10.55528 5.2596,-6.61093 13.9104,-20.11637 13.2856,-20.74117 -0.1814,-0.18144 -1.4232,0.44221 -2.7596,1.38588 -1.3364,0.94368 -7.8036,4.49121 -14.3714,7.88342 -10.8655,5.61189 -16.1854,7.39781 -16.1854,5.43354 0,-0.40376 3.9919,-3.29723 8.8708,-6.42993 4.879,-3.13269 10.557,-7.14322 12.618,-8.91227 3.4992,-3.0037 8.4605,-9.65133 7.7404,-10.37142 -0.1764,-0.17646 -5.5595,1.79603 -11.9623,4.38333 -11.3471,4.58518 -21.5186,7.35184 -27.0288,7.35184 -2.522,0 -2.6198,-0.10551 -1.3109,-1.41437 0.7779,-0.77791 3.2954,-1.90525 5.5945,-2.50521 3.7563,-0.98022 2.9897,-1.04372 -7.56,-0.62631 -13.3089,0.52659 -22.9783,-0.57755 -32.1082,-3.66642 -9.6214,-3.25514 -13.8378,-6.78309 -5.6397,-4.71877 2.1711,0.54669 4.4578,0.80429 5.0816,0.57244 1.3172,-0.48957 1.3334,-0.48262 -7.4119,-3.19653 -11.8378,-3.67361 -18.6371,-8.26074 -19.9402,-13.45262 -0.7556,-3.01054 0.02,-3.79234 1.6389,-1.65234 1.1734,1.55101 1.2636,1.42433 1.2892,-1.81046 0.015,-1.91298 1.1696,-6.196937 2.5654,-9.519887 6.9597,-16.56799 9.9643,-33.63213 9.3599,-53.1567 -0.3474,-11.21971 -0.7997,-14.76558 -2.7111,-21.2552 -5.5171,-18.73113 -14.9242,-31.66852 -25.1987,-34.6554 -4.3376,-1.26098 -5.7407,-1.31822 -9.8833,-0.40318 -12.6928,2.80369 -25.4214,10.25317 -42.0421,24.60545 -5.7917,5.00118 -9.2317,8.1534 -23.7998,21.80851 -19.5147,18.2918 -33.2131,28.64907 -43.705,33.04514 -2.3346,0.9782 -2.1963,0.71445 1.3721,-2.61653 2.1826,-2.03742 5.8824,-5.3468 8.2217,-7.35418 l 4.2534,-3.64977 -3.0291,0.34678 c -1.666,0.19073 -7.313,0.5869 -12.5489,0.88037 -13.5652,0.76033 -25.1109,2.6054 -32.0383,5.11992 -5.5699,2.02178 -6.0993,2.07485 -7.555,0.75741 -1.459,-1.32035 -1.6554,-1.28831 -2.8877,0.47099 -1.6432,2.34603 -3.097,2.39057 -5.1185,0.1568 -2.0285,-2.2414 -2.8441,-2.186 -3.1853,0.21636 -0.3259,2.29512 -3.7149,3.00999 -7.6938,1.62293 -2.8319,-0.9872 -2.9917,-0.81572 -1.4863,1.59488 1.6007,2.56312 0.2506,3.05994 -5.236,1.92671 -2.7524,-0.56851 -5.9546,-1.01322 -7.1159,-0.98826 l -2.1115,0.0454 1.9472,1.35834 c 3.9995,2.78986 2.4542,3.47129 -9.0872,4.0072 -13.2645,0.61592 -14.9289,1.01823 -14.9289,3.6085 0,1.7345 -0.5522,1.9971 -5.2269,2.48571 -2.8748,0.30047 -6.2825,1.11926 -7.5727,1.81953 l -2.3457,1.2732 3.6782,0.0346 c 2.3626,0.0222 3.6681,0.42157 3.6502,1.11646 -0.015,0.59499 -3.8125,3.38326 -8.4381,6.19613 -14.5349,8.8389 -17.5513,11.08556 -27.7988,20.705037 -5.4934,5.15674 -10.7245,9.77005 -11.6246,10.25179 -1.6019,0.85729 -1.6024,0.81642 -0.024,-1.92314 2.6097,-4.53032 13.859,-16.050487 22.0954,-22.627477 4.2042,-3.35715 7.644,-6.3932 7.644,-6.74678 0,-0.35358 -2.4007,-1.72026 -5.335,-3.03705 -18.4058,-8.25999 -33.9651,-12.03473 -83.8059,-20.33147 -11.6619,-1.94129 -26.5289,-4.81479 -33.0378,-6.38555 -7.5509,-1.8222 -12.3186,-2.58499 -13.1721,-2.10737 -2.9412,1.64596 -5.0636,11.64372 -5.5027,25.92084 -0.969,31.506297 5.8904,57.068157 20.9964,78.244827 6.0595,8.4945 19.25,22.68175 23.289,25.04878 4.2857,2.51159 6.0528,2.19224 7.9273,-1.43266 1.5473,-2.99212 1.4793,-3.12493 -4.2485,-8.30294 -7.9117,-7.15226 -14.55,-14.41302 -16.3018,-17.83036 -0.9387,-1.8311 -1.5612,-3.47477 -1.3834,-3.65259 0.1779,-0.17781 4.0022,3.40764 8.4985,7.96769 4.4963,4.56005 10.3599,9.78359 13.0302,11.60788 l 4.8551,3.31689 2.5659,-2.76262 c 1.4113,-1.51944 6.7865,-7.82547 11.945,-14.0134 5.1584,-6.18793 9.9229,-11.69987 10.5877,-12.24873 0.9811,-0.81006 0.6181,-1.19287 -1.9282,-2.03323 -4.4054,-1.45389 -8.6105,-5.99692 -10.6863,-11.54482 -1.6777,-4.48404 -2.1573,-7.44634 -4.4835,-27.68759 -1.5871,-13.810287 -5.105,-22.010227 -11.3989,-26.569447 -1.8685,-1.35354 -8.1422,-4.04411 -13.9417,-5.97907 -5.7995,-1.93494 -12.297,-4.71538 -14.439,-6.17874 -2.142,-1.46336 -3.1156,-2.44535 -2.1636,-2.1822 0.952,0.26315 4.457,1.05094 7.789,1.75064 15.2707,3.2068 24.3597,7.12667 29.3612,12.66271 6.1928,6.85466 8.57,14.84794 10.5227,35.381387 0.7438,7.82166 1.946,16.00011 2.6716,18.17435 1.6728,5.01308 4.9235,8.47789 9.1387,9.7408 3.0628,0.91762 3.4751,0.82244 5.7087,-1.31748 1.3242,-1.2686 2.8908,-2.30654 3.4814,-2.30654 0.5907,0 -1.7745,3.21296 -5.2558,7.13992 -3.4813,3.92696 -11.5802,14.14173 -17.9974,22.69948 -18.3111,24.418883 -31.225,36.812433 -46.2909,44.425733 -6.0657,3.06516 -14.2933,5.92703 -19.3766,6.73988 -4.4903,0.71803 -5.517,2.07772 -1.569,2.07772 3.4484,0 8.402,1.56597 8.402,2.65609 0,0.41573 -2.6288,1.52208 -5.8418,2.45855 -3.2129,0.93648 -8.1784,2.38282 -11.0344,3.21409 l -5.1927,1.51139 4.8531,0.57807 c 7.7192,0.91947 8.8135,2.31235 3.585,4.56319 -1.7849,0.76842 -4.9979,1.82042 -7.1399,2.33777 -6.6195,1.59883 -6.6983,1.90418 -0.8654,3.3527 7.1727,1.78127 7.599,3.65852 1.0818,4.76414 -2.499,0.42395 -4.5436,1.00911 -4.5436,1.30037 0,0.29127 5.1602,2.2669 11.4671,4.39029 13.0358,4.38883 26.8065,10.99282 33.3875,16.01159 4.7553,3.62644 5.7277,5.33781 2.5285,4.44992 -5.6779,-1.5758 -6.1967,-1.51734 -2.8975,0.3265 7.5565,4.22315 10.0374,6.1397 10.0374,7.75397 0,5.03943 32.0539,24.01722 54.6878,32.3784 18.6483,6.88886 39.9043,12.07025 60.8492,14.83274 17.9775,2.37109 18.6204,2.81346 4.2551,2.92783 -7.1796,0.0572 -13.3208,0.37092 -13.6471,0.69725 -1.7282,1.72814 21.3566,8.32773 34.0572,9.73644 8.3971,0.93139 27.2272,0.5201 38.0795,-0.83174 z M -1354.66,117.3194 c -6.4563,-1.36616 -14.0783,-6.03206 -14.0783,-8.61817 0,-1.81293 6.8765,-0.84892 13.1074,1.83752 9.0628,3.9074 15.7377,3.89758 22.608,-0.0332 6.0167,-3.44238 8.6528,-3.45896 5.9551,-0.0375 -4.1485,5.2614 -18.3918,8.79814 -27.5922,6.85135 z m -33.5509,-21.05994 c -4.7236,-1.85205 -8.1579,-4.03758 -9.0945,-5.78765 -1.3668,-2.55388 -2.019,-12.20683 -0.9931,-14.69882 0.7935,-1.92729 0.8967,-1.96777 0.9456,-0.37053 0.1934,6.32199 6.4802,15.97093 11.8744,18.22477 3.3431,1.39685 7.9317,1.53029 11.1072,0.32299 2.915,-1.10829 11.953,-9.62695 11.0664,-10.43049 -0.3704,-0.33573 -2.6935,-1.26559 -5.1624,-2.06636 -9.3576,-3.03506 -18.9226,-10.94282 -21.0563,-17.40811 -1.6709,-5.06273 -0.691,-14.67895 2.043,-20.04844 2.327,-4.57028 6.9122,-9.79654 10.0844,-11.49424 2.9977,-1.60433 2.0287,0.853 -3.0202,7.65911 -4.0584,5.47078 -6.6672,11.49645 -5.4879,12.67573 0.1929,0.19289 3.9261,-0.77022 8.2961,-2.14026 17.1318,-5.37112 26.2877,-5.13228 30.2787,0.78988 2.1356,3.16906 2.5475,7.90666 1.0343,11.89702 -0.5081,1.33997 -2.8448,5.433 -5.1927,9.09563 -2.3478,3.66261 -4.2688,7.02146 -4.2688,7.46411 0,0.44264 2.7262,1.68138 6.0581,2.75275 7.6281,2.45275 18.084,2.17699 24.4025,-0.64356 6.3408,-2.83055 11.5164,-8.57799 13.5731,-15.07265 l 1.7377,-5.4872 0.03,4.75995 c 0.056,8.9754 -5.5057,16.1878 -15.4417,20.02552 -6.7576,2.61009 -17.6323,2.63685 -24.6524,0.0607 l -5.1112,-1.87566 -5.7718,4.27878 c -10.8862,8.07026 -19.6838,10.49463 -27.2781,7.51706 z m 31.8311,-22.86644 c 2.1104,-3.21297 4.2823,-7.16559 4.8265,-8.7836 1.412,-4.19883 1.2598,-10.90154 -0.2765,-12.17662 -1.9154,-1.58958 -10.6988,-2.09157 -16.2894,-0.93097 -5.504,1.14263 -16.9437,6.51091 -17.6178,8.26743 -0.7121,1.85586 2.7555,7.62923 6.8482,11.40176 4.3547,4.01399 6.509,5.30462 11.4486,6.85878 6.2655,1.97132 6.8927,1.70839 11.0604,-4.63678 z m -63.8525,-27.42508 c -13.0148,-4.43961 -21.6661,-11.46763 -27.1927,-22.09037 -2.0079,-3.85948 -5.0382,-8.40472 -6.734,-10.10053 -2.9706,-2.97057 -3.2505,-3.06242 -7.6556,-2.51204 -10.4948,1.31124 -18.4498,-3.96164 -20.6806,-13.70789 -0.4591,-2.00569 -0.3144,-2.39143 0.7446,-1.98506 0.7229,0.27742 1.555,0.11508 1.8491,-0.36075 0.2941,-0.47583 2.0488,0.85503 3.8994,2.95745 3.3729,3.83178 6.8116,5.94956 11.5992,7.1436 l 2.5635,0.63934 -2.9962,-3.66516 c -4.9188,-6.017 -6.0159,-8.12983 -6.0207,-11.5946 -0.01,-4.063693 1.3086,-3.491273 2.708,1.1795 0.5661,1.88964 1.6234,3.91791 2.3495,4.50725 1.1095,0.90061 1.2268,0.82278 0.7353,-0.48795 -0.6759,-1.80223 0.4424,-1.35195 3.5161,1.41567 l 1.9571,1.76231 2.8028,-2.6965 c 1.5415,-1.48308 4.9448,-3.79449 7.5628,-5.13648 4.3292,-2.2192 5.5821,-2.43997 13.8471,-2.43997 8.3471,0 9.4748,0.20383 13.8471,2.50276 8.096,4.25683 10.327,6.54886 18.5881,19.09656 11.1127,16.87894 13.5113,22.09703 12.1416,26.41279 -0.7513,2.36712 -3.279,1.01453 -4.7526,-2.54317 -1.3573,-3.27671 -1.8515,-3.28187 -3.7669,-0.0393 -2.2085,3.73872 -4.2271,4.58171 -8.3273,3.47764 -4.8997,-1.31935 -8.5686,-4.78986 -11.4072,-10.79048 -2.2073,-4.6659 -2.7542,-5.23305 -5.0712,-5.25922 -3.2101,-0.0363 -3.2952,1.13449 -0.5055,6.9529 4.5436,9.47662 12.698,14.50794 23.6352,14.58321 6.2113,0.0428 6.341,0.0869 4.449,1.51408 -5.1321,3.87109 -14.567,4.37477 -23.685,1.26441 z m -3.8902,-10.56543 c -3.8506,-4.38559 -6.0329,-9.93548 -7.0964,-18.04706 -0.4993,-3.80796 -1.0428,-7.41038 -1.2079,-8.00537 -0.3705,-1.33538 -5.9546,-1.41155 -12.9609,-0.1768 -7.5612,1.33256 -7.5557,1.32812 -5.0167,4.03956 1.2421,1.32645 4.4011,5.33259 7.0202,8.90255 8.5823,11.69853 14.2708,16.37103 19.9961,16.42446 2.0023,0.0187 1.9898,-0.0346 -0.7344,-3.13734 z m 1.9323,-20.07022 c 0.9253,-3.5707 -0.4373,-5.52741 -3.5934,-5.16052 -2.8387,0.32997 -3.5785,4.31316 -1.274,6.85953 2.1272,2.35055 3.9862,1.70164 4.8674,-1.69901 z m 17.1032,-0.87172 c 0,-1.78283 -6.9867,-11.29345 -10.6932,-14.55597 -6.1133,-5.38117 -11.1285,-7.49347 -18.732,-7.88957 -4.8606,-0.25321 -7.5758,0.067 -10.8109,1.27479 -4.8566,1.81326 -5.7446,3.61561 -3.0894,6.27079 2.4235,2.42351 3.5083,2.2414 3.5496,-0.59587 l 0.035,-2.37998 1.2286,2.2605 c 1.4991,2.75835 3.9336,3.75737 13.2927,5.45493 3.9789,0.72168 8.4576,2.05396 9.9527,2.96061 1.495,0.90665 5.0321,3.06203 7.86,4.78974 5.0558,3.08876 7.4072,3.85382 7.4072,2.41003 z m -45.0032,-11.33389 c 0,-0.4479 -0.3391,-1.02398 -0.7537,-1.28016 -0.4145,-0.25619 -1.0019,-1.7071 -1.3053,-3.22424 l -0.5517,-2.75846 -2.1564,2.02586 c -2.696,2.53273 -2.6865,2.72551 0.2235,4.52971 2.655,1.64608 4.5436,1.94008 4.5436,0.70729 z m 122.3138,16.03712 c 0.2425,-2.88264 -0.366,-7.39525 -1.761,-13.05914 -3.692,-14.98994 -1.7812,-26.891123 6.088,-37.918833 6.2307,-8.73155 15.3006,-14.20187 26.8946,-16.22088 5.9376,-1.03398 6.6362,-1.78914 4.8106,-5.20018 -1.618,-3.02327 1.362,-1.92821 3.9359,1.44631 l 2.38,3.12029 5.8809,-0.3323 c 7.1137,-0.40196 8.8801,-1.72195 10.9064,-8.15007 0.7932,-2.51611 2.3136,-5.66774 3.3788,-7.00361 1.9147,-2.40126 1.9573,-2.41018 3.7533,-0.78482 2.2863,2.06907 2.355,6.01195 0.1791,10.27994 -0.9007,1.76662 -1.4694,3.21205 -1.2637,3.21205 0.2056,0 1.8188,-0.74591 3.5848,-1.65757 4.4185,-2.28089 9.2858,-7.54071 11.226,-12.13125 l 1.6215,-3.8362 1.9843,1.98431 c 1.6764,1.67645 1.8956,2.54017 1.4125,5.56709 -0.3145,1.97052 -1.3179,4.84849 -2.2298,6.39547 -1.1039,1.87265 -1.3062,2.80998 -0.6054,2.80458 2.0442,-0.0158 9.9316,-5.12174 14.8362,-9.60428 5.3237,-4.86553 6.5135,-4.78857 6.5411,0.42308 0.029,5.40132 -5.8993,11.03437 -16.0529,15.254 l -4.3237,1.79686 -7.7103,16.19083 c -18.3501,38.533463 -25.6331,44.367503 -62.1647,49.796903 l -13.673,2.0321 z m 15.3556,-1.99223 8.2854,-1.45189 -6.5545,-4.88892 c -4.0355,-3.01005 -7.5503,-6.48964 -9.1457,-9.05406 l -2.5912,-4.16515 -1.0204,3.38111 c -0.5612,1.85961 -1.0504,6.83422 -1.0869,11.05469 -0.065,7.55659 -0.037,7.66522 1.8807,7.12485 1.071,-0.3018 5.6757,-1.20208 10.2326,-2.00063 z m 27.407,-8.03824 c 9.1316,-3.20951 14.145,-8.64423 14.7545,-15.99469 0.3423,-4.12744 0.014,-5.586593 -2.2985,-10.204873 -1.4838,-2.96384 -3.4967,-6.36243 -4.4732,-7.55241 l -1.7754,-2.16362 1.415,3.46178 c 1.7718,4.33459 1.8701,12.885923 0.194,16.876183 -3.2339,7.6987 -10.0636,12.38563 -18.0655,12.39751 -4.2071,0.006 -5.9598,-0.59256 -13.272,-4.53446 -4.6337,-2.49793 -8.6134,-4.3531 -8.8439,-4.12261 -0.8579,0.85788 3.2154,7.42947 5.703,9.20076 6.5015,4.62946 17.8099,5.74768 26.662,2.63643 z m -20.7983,-12.95058 c 5.7174,-3.48607 8.0615,-13.281523 3.7327,-15.598213 -4.2025,-2.24909 -9.0042,0.8091 -13.7324,8.746093 -2.3334,3.91704 -2.3364,3.87106 0.4247,6.43001 2.7622,2.55995 5.8458,2.6959 9.575,0.42211 z m -11.2477,-11.481033 c 3.1823,-2.98422 7.3158,-6.95498 9.1857,-8.82391 3.4578,-3.45608 7.4326,-10.77166 7.5583,-13.91085 0.069,-1.73089 0.069,-1.73089 0.8131,0 0.4091,0.95199 0.7711,2.80187 0.8046,4.11086 0.079,3.08294 0.8651,3.00025 4.1144,-0.43272 3.3492,-3.53846 4.6009,-5.96299 4.6009,-8.91218 0,-2.26063 -0.099,-2.30401 -3.9276,-1.7298 -14.2982,2.14414 -26.3248,10.96269 -30.2943,22.21325 -1.7283,4.89862 -3.0755,14.535953 -2.3955,17.136403 0.5136,1.96391 0.6025,1.91883 2.1452,-1.08821 0.8851,-1.72534 4.213,-5.578633 7.3952,-8.562843 z m 53.53,0.84862 c 0.3335,-1.07099 3.1196,-6.38532 6.1913,-11.80962 3.0718,-5.4243 5.8063,-11.22603 6.0768,-12.89274 0.4633,-2.85516 0.3714,-3.00054 -1.5894,-2.51427 -1.1447,0.28388 -5.9757,1.35188 -10.7357,2.37334 -4.7599,1.02147 -10.5283,2.65738 -12.8187,3.63536 l -4.1642,1.77815 4.2973,3.75925 c 3.0955,2.70782 5.2284,5.69503 7.6261,10.68039 1.8308,3.80662 3.5945,6.9248 3.9194,6.92926 0.3249,0.004 0.8636,-0.86814 1.1971,-1.93912 z m -18.664,-27.47789 3.8945,-3.41013 -3.6996,-0.0258 c -3.1862,-0.0222 -3.8167,0.28219 -4.5436,2.19413 -1.0066,2.64759 -1.0927,4.7135 -0.1949,4.67778 0.357,-0.0142 2.4016,-1.56039 4.5436,-3.43595 z m -121.8102,27.31183 c -1.3813,-1.16232 -3.6335,-4.76474 -5.0049,-8.00536 -5.775,-13.6467 -12.3423,-23.33678 -18.0124,-26.57749 -7.3713,-4.21298 -12.9738,-3.54991 -23.5565,2.78799 -3.2598,1.95228 -6.0794,3.39713 -6.2658,3.21079 -0.6751,-0.67516 2.8063,-5.60682 5.2154,-7.38796 8.2422,-6.09374 22.4177,-5.62104 30.4424,1.01513 1.8556,1.53449 5.5177,6.12173 8.138,10.19384 2.6203,4.07212 6.4507,9.38561 8.5119,11.80776 4.4063,5.17785 6.7023,10.17471 5.9862,13.02791 -0.6544,2.60737 -2.2953,2.58552 -5.4543,-0.07261 z m 46.8791,-8.34885 c -2.0645,-2.28042 -2.8385,-14.73858 -1.2542,-20.18621 4.0289,-13.85378 22.6597,-32.12417 39.4039,-38.64162 4.8704,-1.89577 6.3873,-2.02391 24.4479,-2.06521 10.5904,-0.0242 19.2556,0.0454 19.2561,0.15475 5e-4,0.10932 -1.6542,1.06389 -3.6772,2.12127 -3.3338,1.74249 -5.3394,1.97028 -21.4198,2.43267 l -17.7416,0.51016 -6.0581,3.14756 c -8.0165,4.16504 -14.1039,9.69226 -19.4068,17.62079 -5.6408,8.43365 -7.8547,15.59379 -7.8547,25.40306 0,6.78519 -0.2037,7.73829 -2.0174,9.44216 l -2.0173,1.89519 z m -172.8747,-41.17607 c -0.3174,-0.31733 -0.577,-1.33864 -0.577,-2.26958 0,-1.40643 0.2195,-1.51045 1.2982,-0.61524 0.714,0.59256 1.2981,1.61388 1.2981,2.26958 0,1.26102 -1.0528,1.58178 -2.0193,0.61524 z m 355.6868,-8.29385 c 0.3754,-1.07099 0.5758,-4.02753 0.4454,-6.5701 -0.2498,-4.87263 0.046,-5.03353 3.6105,-1.9642 1.4637,1.26033 1.6915,1.23627 2.8127,-0.29705 0.671,-0.91765 1.22,-2.54229 1.22,-3.61031 0,-1.9557 -0.387,-3.15131 -3.0157,-9.31505 l -1.4355,-3.36599 2.6583,0.53166 c 2.1727,0.43454 2.6584,0.24963 2.6584,-1.01218 0,-2.148097 -1.5674,-3.915567 -5.769,-6.505607 -1.983,-1.22236 -3.8438,-2.60817 -4.1351,-3.07957 -0.7349,-1.18908 2.3312,-2.67482 5.52,-2.67482 6.1483,0 -0.2654,-5.93144 -7.9784,-7.37841 -1.7686,-0.33178 -3.2155,-0.92112 -3.2155,-1.30963 0,-0.38853 1.2538,-1.68768 2.7863,-2.88702 3.6245,-2.83664 2.5764,-3.73013 -2.7687,-2.36022 -2.3533,0.60314 -4.642,0.87211 -5.086,0.59772 -0.4439,-0.27439 0.506,-2.93536 2.1109,-5.91326 1.605,-2.9779 2.927,-5.90118 2.9378,-6.49618 0.04,-2.19598 -3.1889,-0.98055 -6.5119,2.45131 -3.5187,3.63397 -7.6034,6.27588 -8.4282,5.45114 -0.2566,-0.25664 0.1132,-2.16817 0.8218,-4.24785 0.7086,-2.07969 1.1613,-4.59946 1.006,-5.59949 -0.2724,-1.75382 -0.4051,-1.72758 -3.7442,0.74074 -1.904,1.40745 -6.3533,5.93031 -9.8874,10.05081 -8.3467,9.73167 -14.1813,14.94355 -19.5378,17.45273 -6.8402,3.20422 -8.2895,2.47455 -2.5141,-1.26579 9.2503,-5.99085 16.8745,-16.09635 20.6488,-27.36887 2.8188,-8.41896 4.1084,-16.69408 4.7272,-30.33528 0.5676,-12.51045 0.8445,-14.26819 2.8692,-18.2091 2.8098,-5.46917 8.924,-11.16728 14.9363,-13.91976 5.1398,-2.3531 14.8331,-4.63837 19.4811,-4.59284 2.4306,0.0238 1.2336,0.67524 -6.0581,3.29699 -11.5885,4.16664 -15.707,6.3141 -20.3921,10.63265 -5.927,5.46332 -7.2088,10.01099 -8.2037,29.10585 -0.8231,15.79671 -1.4391,19.96431 -3.8955,26.35676 -1.763,4.58797 -0.3288,4.02765 3.8468,-1.50287 4.045,-5.35753 7.4003,-6.90818 9.3066,-4.30109 0.6399,0.87516 1.1635,2.68511 1.1635,4.02212 0,1.33701 0.2933,2.43093 0.6519,2.43093 0.3585,0 2.569,-1.36308 4.9123,-3.02906 4.7206,-3.35626 6.1126,-3.69156 6.8922,-1.66011 0.9023,2.35143 0.5481,4.98789 -1.1823,8.80003 l -1.6696,3.67814 3.6359,0.0127 c 6.5963,0.0231 10.4826,3.6418 6.0158,5.6015 -1.071,0.46987 -1.9401,1.05404 -1.9313,1.29817 0.01,0.24412 1.8556,1.61221 4.1042,3.04019 4.29,2.72449 6.6422,6.23212 5.7458,8.56827 -0.2922,0.76139 -1.2036,1.38435 -2.0253,1.38435 -2.6993,0 -2.5662,0.99019 0.4943,3.67733 l 3.0169,2.64886 4.2765,-4.21215 c 5.2779,-5.1986 10.3972,-15.35419 12.8445,-25.48106 2.0862,-8.63247 3.9603,-29.47554 3.2662,-36.32553 -0.6857,-6.7673 0.7442,-3.59502 2.0458,4.53873 3.3789,21.11372 -3.2974,45.34693 -16.1111,58.47957 -4.1421,4.24519 -5.5575,6.310447 -5.5575,8.108667 0,1.9593 -0.3844,2.41274 -2.045,2.41274 -2.0357,0 -2.0392,0.0176 -0.7669,3.88237 1.5053,4.57238 0.8831,9.29719 -1.544,11.72429 -0.9147,0.91464 -2.256,1.43543 -2.9808,1.1573 -0.9593,-0.36812 -1.3178,0.0716 -1.3178,1.61638 0,1.95854 -2.3103,4.98668 -3.8046,4.98668 -0.3516,0 -0.3322,-0.87626 0.043,-1.94725 z m -364.4176,-26.39608 c -2.3445,-2.329447 -5.6933,-17.193487 -5.6933,-25.270547 0,-5.74114 2.1686,-12.33128 4.8725,-14.8071 2.6081,-2.38809 2.6012,-2.14589 -0.1494,5.24349 -1.1865,3.18753 -1.3618,5.85832 -0.9654,14.71256 0.2663,5.94994 1.0365,13.05741 1.7114,15.79438 1.2804,5.192117 1.2905,5.386677 0.2242,4.327217 z m 391.8054,-89.683927 c -0.3807,-0.65569 -2.7807,-2.96667 -5.3334,-5.13552 -4.664,-3.96267 -9.3231,-9.85431 -8.4685,-10.70887 0.2522,-0.25217 2.114,0.45966 4.1374,1.58183 2.4609,1.36485 5.0514,4.04595 7.8248,8.09844 2.2803,3.33197 4.1529,6.35021 4.1613,6.7072 0.026,1.09672 -1.589,0.71896 -2.3216,-0.54308 z"
         style="fill:#aa0000" />
      <g
         id="g6791">
        <path
           style="fill:none;stroke:#800000;stroke-width:3.20000005;stroke-linecap:butt;stroke-linejoin:miter;stroke-miterlimit:4;stroke-opacity:1;stroke-dasharray:none"
           d="m -1362.9153,225.27936 c 2.2851,-8.08539 16.462,-1.14785 22.3835,-1.14785"
           id="path6783"
           inkscape:connector-curvature="0" />
        <path
           style="fill:none;stroke:#800000;stroke-width:3.20000005;stroke-linecap:butt;stroke-linejoin:miter;stroke-miterlimit:4;stroke-opacity:1;stroke-dasharray:none"
           d="m -1350.8627,222.65703 c 0.9379,5.89862 -0.1913,11.67398 -0.1913,17.60061"
           id="path6785"
           inkscape:connector-curvature="0" />
        <path
           style="fill:none;stroke:#800000;stroke-width:3.20000005;stroke-linecap:butt;stroke-linejoin:miter;stroke-miterlimit:4;stroke-opacity:1;stroke-dasharray:none"
           d="m -1362.3414,239.88459 c 4.6115,-2.73307 20.4165,4.37029 21.8096,0.19131"
           id="path6789"
           inkscape:connector-curvature="0" />
      </g>
    </g>
  </g>
</svg>
