<?xml version="1.0" encoding="UTF-8" standalone="no"?>
<!-- Created with Inkscape (http://www.inkscape.org/) -->

<svg
   xmlns:dc="http://purl.org/dc/elements/1.1/"
   xmlns:cc="http://creativecommons.org/ns#"
   xmlns:rdf="http://www.w3.org/1999/02/22-rdf-syntax-ns#"
   xmlns:svg="http://www.w3.org/2000/svg"
   xmlns="http://www.w3.org/2000/svg"
   xmlns:sodipodi="http://sodipodi.sourceforge.net/DTD/sodipodi-0.dtd"
   xmlns:inkscape="http://www.inkscape.org/namespaces/inkscape"
   width="744.09448819"
   height="1052.3622047"
   id="svg2"
   version="1.1"
   inkscape:version="0.48.5 r10040"
   sodipodi:docname="New document 1">
  <defs
     id="defs4" />
  <sodipodi:namedview
     id="base"
     pagecolor="#ffffff"
     bordercolor="#666666"
     borderopacity="1.0"
     inkscape:pageopacity="0.0"
     inkscape:pageshadow="2"
     inkscape:zoom="22.4"
     inkscape:cx="68.343205"
     inkscape:cy="883.44057"
     inkscape:document-units="px"
     inkscape:current-layer="layer1"
     showgrid="false"
     inkscape:window-width="1676"
     inkscape:window-height="1046"
     inkscape:window-x="0"
     inkscape:window-y="0"
     inkscape:window-maximized="0" />
  <metadata
     id="metadata7">
    <rdf:RDF>
      <cc:Work
         rdf:about="">
        <dc:format>image/svg+xml</dc:format>
        <dc:type
           rdf:resource="http://purl.org/dc/dcmitype/StillImage" />
        <dc:title></dc:title>
      </cc:Work>
    </rdf:RDF>
  </metadata>
  <g
     inkscape:label="Layer 1"
     inkscape:groupmode="layer"
     id="layer1">
    <g
       style="font-size:10px;font-style:italic;font-variant:normal;font-weight:bold;font-stretch:normal;text-align:start;line-height:125%;letter-spacing:0px;word-spacing:0px;writing-mode:lr-tb;text-anchor:start;fill:#000000;fill-opacity:1;stroke:none;font-family:URW Chancery L;-inkscape-font-specification:URW Chancery L Bold Italic"
       id="text2999" />
    <g
       style="font-size:10px;font-style:italic;font-variant:normal;font-weight:500;font-stretch:normal;text-align:start;line-height:125%;letter-spacing:0px;word-spacing:0px;writing-mode:lr-tb;text-anchor:start;fill:#000000;fill-opacity:1;stroke:none;font-family:URW Chancery L;-inkscape-font-specification:URW Chancery L Medium Italic"
       id="text3003" />
    <g
       style="font-size:10px;font-style:italic;font-variant:normal;font-weight:500;font-stretch:normal;text-align:start;line-height:125%;letter-spacing:0px;word-spacing:0px;writing-mode:lr-tb;text-anchor:start;fill:#000000;fill-opacity:1;stroke:none;font-family:URW Chancery L;-inkscape-font-specification:URW Chancery L Medium Italic"
       id="text3007" />
    <path
       style="font-size:medium;font-style:normal;font-variant:normal;font-weight:normal;font-stretch:normal;text-indent:0;text-align:start;text-decoration:none;line-height:normal;letter-spacing:normal;word-spacing:normal;text-transform:none;direction:ltr;block-progression:tb;writing-mode:lr-tb;text-anchor:start;baseline-shift:baseline;color:#000000;fill:none;stroke:#000000;stroke-width:0.01;stroke-miterlimit:4;stroke-opacity:1;stroke-dasharray:none;marker:none;visibility:visible;display:inline;overflow:visible;enable-background:accumulate;font-family:Sans;-inkscape-font-specification:Sans"
       d="m 61.611595,163.2991 c -0.19,0.1 -0.2875,0.14875 -0.4375,0.21875 -0.07,0.04 -0.13875,0.0537 -0.21875,0.0937 -0.04,0.02 -0.075,0.0425 -0.125,0.0625 l -0.15625,0.71875 -0.84375,0 c -0.48,-0.11 -0.851251,-0.15625 -1.28125,-0.15625 -0.374822,0 -0.552588,0.0283 -0.78125,0.15625 l -1.75,0 c -0.09694,-0.1014 -0.215779,-0.15625 -0.375,-0.15625 -0.179999,0 -0.29625,0.0412 -0.65625,0.28125 -0.749999,0.47 -0.905,0.62125 -1.125,1.03125 -0.279999,0.54 -0.5,1.38 -0.5,2 0,0.58 0.290001,0.9375 0.75,0.9375 0.155148,0 0.344752,-0.0767 0.5625,-0.15625 l 1.5,0 c 0.06599,0.088 0.152439,0.15625 0.25,0.15625 0.088,0 0.19996,-0.0602 0.375,-0.15625 l 1.28125,0 c 0.01901,0.0857 0.07694,0.15625 0.15625,0.15625 0.07273,0 0.15434,-0.0427 0.34375,-0.15625 l 1.53125,0 c 0.06657,0.084 0.144604,0.15625 0.21875,0.15625 0.06925,0 0.188963,-0.0768 0.34375,-0.15625 l 1.25,0 -0.03125,0.125 0.3125,-0.125 2.625,0 c 0.05998,0.0785 0.13125,0.15625 0.21875,0.15625 0.0581,0 0.186456,-0.0756 0.34375,-0.15625 l 1.3125,0 c -0.138452,0.65373 -0.197123,0.95936 -0.28125,1.21875 -0.16,0.51 -0.475001,0.71875 -1.125,0.71875 -0.29,0 -0.503751,-0.0475 -1.09375,-0.1875 l -0.40625,0.6875 c 0.309999,0.04 0.74375,0.0625 1.09375,0.0625 0.699999,0 1.1175,-0.2025 1.6875,-0.8125 0.481514,-0.51472 0.588985,-0.71423 0.8125,-1.6875 l 0.46875,0 c -0.01354,0.0533 -0.0156,0.0624 -0.03125,0.125 l 0.3125,-0.125 2,0 c 0.02305,0.0559 0.02182,0.12092 0.0625,0.1875 0.0933,-0.0426 0.233359,-0.12789 0.34375,-0.1875 l 1.375,0 0,-0.0625 c 0.136594,0.1249 0.31195,0.21875 0.53125,0.21875 0.589999,0 1.335001,-0.42875 2.125,-1.21875 l 0,-0.28125 c -0.749999,0.65 -1.245001,0.90625 -1.625,0.90625 -0.25,0 -0.46125,-0.14625 -0.53125,-0.40625 -0.04,-0.16 -0.03125,-0.2725 -0.03125,-0.5625 0.449999,-0.28 0.75375,-0.4975 1.34375,-0.9375 0.539999,-0.41 0.75,-0.7375 0.75,-1.1875 0,-0.35 -0.243751,-0.5625 -0.59375,-0.5625 -0.198,0 -0.33568,0.0534 -0.53125,0.15625 l -1.8125,0 c 0,-0.11 -0.0575,-0.15625 -0.1875,-0.15625 -0.102115,0 -0.248417,0.0571 -0.4375,0.15625 l -1.40625,0 c 2.41e-4,-0.003 0,-0.029 0,-0.0312 0,-0.07 -0.08625,-0.125 -0.15625,-0.125 -0.03537,0 -0.201868,0.0897 -0.34375,0.15625 l -0.65625,0 c 0.02,-0.0663 0.04142,-0.11869 0.0625,-0.1875 -0.13,0.07 -0.241251,0.105 -0.28125,0.125 l -0.125,0.0625 -1.8125,0 c 9.2e-5,-0.002 0,-0.0296 0,-0.0312 0,-0.07 -0.065,-0.125 -0.125,-0.125 -0.03889,0 -0.218195,0.0792 -0.375,0.15625 l -0.65625,0 0.03125,-0.0937 c -0.19,-0.06 -0.24375,-0.0625 -0.34375,-0.0625 -0.130235,0 -0.295742,0.0582 -0.46875,0.15625 l -0.6875,0 c 4.78e-4,-0.007 0,-0.0559 0,-0.0625 0,-0.06 -0.055,-0.0937 -0.125,-0.0937 -0.03922,0 -0.227237,0.0914 -0.375,0.15625 l -1.75,0 0.28125,-1.09375 z m -5.4375,1.40625 1.125,0 c -0.220178,0.15317 -0.419388,0.28819 -0.5,0.375 -0.31541,0.35803 -0.653073,1.38845 -0.75,2.1875 -0.597634,0.40164 -1.070657,0.625 -1.34375,0.625 -0.359999,0 -0.5625,-0.27 -0.5625,-0.75 0,-0.48 0.122501,-1.12375 0.3125,-1.59375 0.2,-0.53 0.460001,-0.78125 0.75,-0.78125 0.24,0 0.35625,0.185 0.40625,0.625 l 0.59375,-0.34375 c 0.01,-0.05 0,-0.115 0,-0.125 0,-0.0839 -0.01517,-0.14785 -0.03125,-0.21875 z m 1.8125,0 c 0.179999,0 0.48375,0.045 0.84375,0.125 -0.2,0.76 -0.27125,0.98125 -0.28125,1.03125 -0.06,0.25 -0.09625,0.49 -0.15625,0.75 -0.01,0.05 -0.04375,0.195 -0.09375,0.375 l -0.1875,0.125 c -0.59,0.43 -0.913751,0.59375 -1.09375,0.59375 -0.16,0 -0.25,-0.18 -0.25,-0.5 0,-0.5 0.15625,-1.18 0.40625,-1.75 0.239999,-0.55 0.4725,-0.75 0.8125,-0.75 z m 1.5625,0 1.0625,0 -0.0625,0.21875 c -0.09,0.01 -0.1575,0.0312 -0.1875,0.0312 l -0.25,0 c -0.02,0 -0.07625,-0.01 -0.15625,0 -0.11,0.07 -0.11125,0.0787 -0.28125,0.21875 -0.03,0.02 -0.08625,0.0437 -0.15625,0.0937 l 0.25,0 0.46875,0 0.21875,0 c -0.235685,0.9872 -0.333572,1.44956 -0.40625,1.78125 -0.75,0.5 -0.9,0.59375 -1,0.59375 -0.07,0 -0.125,-0.0987 -0.125,-0.21875 0,-0.26 0.23375,-1.3575 0.59375,-2.6875 0.01045,-0.0143 0.02222,-0.0189 0.03125,-0.0312 z m 1.71875,0 1.1875,0 c -0.136566,0.0724 -0.274169,0.1429 -0.40625,0.21875 l -0.84375,0 0.0625,-0.21875 z m 2.25,0 0.3125,0 -0.34375,0.25 c 0.01,-0.08 0.03125,-0.12625 0.03125,-0.15625 0.01572,-0.0649 -0.01077,-0.0478 0,-0.0937 z m 1.4375,0 0.15625,0 c -0.06323,0.0356 -0.11956,0.086 -0.1875,0.125 l 0.03125,-0.125 z m 1.15625,0 1.4375,0 -0.59375,2.34375 c -0.999999,0.62 -1.048751,0.65625 -1.21875,0.65625 -0.13,0 -0.21875,-0.1325 -0.21875,-0.3125 0,-0.22 0.09125,-0.69625 0.28125,-1.40625 0.196832,-0.77946 0.266685,-1.05442 0.3125,-1.28125 z m 2.15625,0 0.15625,0 c -0.05219,0.0287 -0.101942,0.0633 -0.15625,0.0937 0.0083,-0.0288 -0.0085,-0.0648 0,-0.0937 z m 1.15625,0 0.96875,0 -1.125,0.6875 c 0.05979,-0.21924 0.105071,-0.45268 0.15625,-0.6875 z m 2.03125,0 1.40625,0 c -0.195509,0.14583 -0.376305,0.29613 -0.5,0.4375 -0.352674,0.42692 -0.643557,1.4015 -0.6875,2.1875 -0.421334,0.23651 -0.613518,0.3125 -0.6875,0.3125 -0.1,0 -0.15625,-0.09 -0.15625,-0.25 0,-0.21 0.06,-0.56 0.25,-1.25 0.385397,-1.37759 0.362512,-1.35427 0.375,-1.4375 z m 1.84375,0 0.3125,0 c 0.08296,0.0682 0.15625,0.18375 0.15625,0.34375 0,0.5 -0.273751,0.81 -1.34375,1.5 0.14875,-0.93625 0.496562,-1.67025 0.875,-1.84375 z m -9.03125,0.25 c 0.12375,0 0.220786,0.0307 0.3125,0.0937 -0.0323,0.0191 -0.06082,0.0117 -0.09375,0.0312 l -0.03125,0.25 c 0.132524,-0.0677 0.197899,-0.0844 0.28125,-0.125 0.02121,0.0242 0.04,0.0337 0.0625,0.0625 l 0.03125,-0.0937 c 0.158172,-0.0741 0.243434,-0.125 0.3125,-0.125 0.1,0 0.15625,0.0662 0.15625,0.15625 0,0.18 -0.0725,0.46375 -0.3125,1.34375 -0.24,0.87 -0.28125,1.115 -0.28125,1.375 0,0.0336 -0.0032,0.0621 0,0.0937 l -2,0 0.71875,-2.71875 c 0.34,-0.25 0.57375,-0.34375 0.84375,-0.34375 z m -1.71875,0.0625 c 0.13,0 0.1875,0.0475 0.1875,0.1875 0,0.14 -0.09875,0.6325 -0.21875,1.0625 l -0.5,1.75 -0.84375,0 c 0.286785,-0.18596 0.60704,-0.39278 1,-0.6875 l 0.03125,-0.25 c -0.759999,0.45 -1.07875,0.625 -1.21875,0.625 -0.13,0 -0.3125,-0.25875 -0.3125,-0.46875 0,-0.14 0.1775,-0.91875 0.4375,-1.96875 0.14,-0.01 0.23125,0 0.28125,0 l 0.40625,0 c 0.004,0 0.02611,2e-4 0.03125,0 l 0,0.0312 c 0.04725,-0.0245 0.05349,-0.0106 0.09375,-0.0312 0.05286,-0.005 0.09087,-0.0192 0.1875,-0.0312 l 0.21875,-0.1875 c 0.0975,-0.04 0.15875,-0.0312 0.21875,-0.0312 z m 5.96875,0 c 0.07,0 0.125,0.045 0.125,0.125 0,0.21 -0.1875,1.0275 -0.4375,1.9375 l -0.25,0.8125 c -0.0045,0.0156 -0.02389,0.0977 -0.03125,0.125 l -0.4375,0 c 0.02654,-0.12113 0.03175,-0.20052 0.0625,-0.34375 0.246697,-1.13481 0.428726,-1.85499 0.625,-2.5625 0.179975,-0.0756 0.286997,-0.0937 0.34375,-0.0937 z m 1.96875,0 c 0.04203,-0.0133 0.05875,0 0.09375,0 0.07,0 0.125,0.045 0.125,0.125 0,0.15 -0.085,0.51625 -0.375,1.65625 -0.21032,0.85084 -0.277626,1.03742 -0.28125,1.21875 l -1.4375,0 0.5625,-2.21875 c 0.937499,-0.5925 1.186406,-0.74141 1.3125,-0.78125 z m -12.28125,2.34375 c -0.07263,0.33411 -0.105122,0.49573 -0.125,0.65625 l -0.8125,0 c 0.25041,-0.16627 0.481761,-0.32812 0.9375,-0.65625 z m 8.71875,0 c -0.0764,0.36794 -0.07526,0.41838 -0.125,0.65625 l -0.875,0 c 0.303863,-0.18879 0.625546,-0.38698 1,-0.65625 z m -6.9375,0.0312 c -0.03,0.17084 -0.0625,0.28722 -0.0625,0.40625 0,0.0701 0.01349,0.14972 0.03125,0.21875 l -0.90625,0 c 0.04588,-0.0292 0.04123,-0.029 0.09375,-0.0625 0.267098,-0.175 0.514372,-0.32121 0.84375,-0.5625 z m -3.96875,0.1875 c -9.42e-4,0.0286 0,0.0664 0,0.0937 0,0.132 -0.02274,0.23928 0,0.34375 l -0.6875,0 c 0.221837,-0.12388 0.442813,-0.26673 0.6875,-0.4375 z m 15.625,0.0312 c 0.0097,0.15863 0.06978,0.28699 0.125,0.40625 l -0.6875,0 c 0.180066,-0.11352 0.368925,-0.2714 0.5625,-0.40625 z"
       id="path3011-0"
       inkscape:connector-curvature="0" />
    <path
       style="font-size:medium;font-style:normal;font-variant:normal;font-weight:normal;font-stretch:normal;text-indent:0;text-align:start;text-decoration:none;line-height:normal;letter-spacing:normal;word-spacing:normal;text-transform:none;direction:ltr;block-progression:tb;writing-mode:lr-tb;text-anchor:start;baseline-shift:baseline;color:#000000;fill:none;stroke:#000000;stroke-width:0.01;stroke-miterlimit:4;stroke-opacity:1;stroke-dasharray:none;marker:none;visibility:visible;display:inline;overflow:visible;enable-background:accumulate;font-family:Sans;-inkscape-font-specification:Sans"
       d="m 64.325893,168.81696 c -0.26,0 -0.48375,0.1025 -0.84375,0.3125 -0.559999,0.32 -0.64,0.39625 -1,0.90625 l -1.21875,1.71875 -1.75,0 c -0.110197,-0.97015 -0.207321,-1.85192 -0.28125,-2.25 l -0.3125,0.25 c -0.379999,-0.05 -0.5725,-0.0625 -0.8125,-0.0625 -0.669999,0 -1.06125,0.16625 -1.53125,0.65625 -0.539999,0.54 -0.875,1.1775 -0.875,1.6875 0,0.29 0.04875,0.53625 0.21875,0.90625 l 0.78125,-0.53125 c -0.24,-0.52 -0.3125,-0.7725 -0.3125,-1.0625 0,-0.65 0.473751,-1 1.34375,-1 0.23,0 0.388751,0.0125 0.71875,0.0625 -0.439999,1.79 -0.97625,3.64875 -1.15625,3.96875 -0.19,0.35 -0.445,0.5 -0.875,0.5 -0.17,0 -0.18,0.0188 -0.75,-0.0312 l -0.4375,0.6875 c 0.18,0.01 0.30625,0 0.40625,0 0.348529,0 0.646377,-0.0582 0.90625,-0.15625 l 4.53125,0 c -2.51e-4,0.007 0,0.0242 0,0.0312 0,0.14 0.12,0.25 0.25,0.25 0.05,0 0.1075,-0.0212 0.1875,-0.0312 0.1,-0.02 0.6875,-0.11625 0.9375,-0.15625 l 0.46875,-0.0625 c 0.149528,0.15418 0.376308,0.25 0.625,0.25 0.248247,0 0.501308,-0.0962 0.875,-0.28125 l 1.90625,0 c -0.02414,0.0906 -0.03788,0.15857 -0.0625,0.25 l 0.625,-0.25 1.34375,0 c -0.02613,0.0863 -0.03597,0.16471 -0.0625,0.25 l 0.65625,-0.25 1.53125,0 c 0.03303,0.0966 0.104926,0.16779 0.21875,0.25 0.153993,-0.0757 0.292213,-0.16791 0.4375,-0.25 l 1.0625,0 c -0.02414,0.0906 -0.03788,0.15857 -0.0625,0.25 l 0.625,-0.25 1.3125,0 c -0.02601,0.0859 -0.03608,0.16509 -0.0625,0.25 l 0.6875,-0.25 1.53125,0 c 0.03303,0.0966 0.104926,0.16779 0.21875,0.25 0.153993,-0.0757 0.292213,-0.16791 0.4375,-0.25 l 1.15625,0 c 0.05953,0.16415 0.14875,0.28125 0.28125,0.28125 0.08821,0 0.325844,-0.10634 0.625,-0.28125 l 1.0625,0 c -0.162667,0.77327 -0.223156,1.09952 -0.3125,1.375 -0.16,0.51 -0.475001,0.6875 -1.125,0.6875 -0.29,0 -0.503751,-0.0475 -1.09375,-0.1875 l -0.40625,0.6875 c 0.309999,0.04 0.74375,0.0625 1.09375,0.0625 0.699999,0 1.1175,-0.17125 1.6875,-0.78125 0.579999,-0.62 0.61875,-0.745 0.96875,-2.375 0.349999,-1.61 0.535,-2.35875 0.875,-3.46875 -0.13,0.07 -0.24125,0.13625 -0.28125,0.15625 l -0.34375,0.15625 c -0.02231,0.0134 -0.06127,0.0473 -0.09375,0.0625 l -1.59375,0 c 0.0049,-0.0288 0.0625,-0.20671 0.0625,-0.21875 0,-0.07 -0.03375,-0.125 -0.09375,-0.125 -0.06323,0 -0.336705,0.15325 -0.6875,0.34375 l -1,0 c 0.0085,-0.0523 0.03125,-0.15567 0.03125,-0.1875 0,-0.1 -0.0875,-0.15625 -0.1875,-0.15625 -0.100096,0 -0.350261,0.13208 -0.75,0.34375 l -1.125,0 c 0.0082,-0.0453 0.0625,-0.19942 0.0625,-0.21875 0,-0.07 -0.045,-0.125 -0.125,-0.125 -0.08741,0 -0.327051,0.13777 -0.6875,0.34375 l -1.125,0 c 0.0036,-0.0245 0.03125,-0.17412 0.03125,-0.1875 0,-0.08 -0.035,-0.15625 -0.125,-0.15625 -0.06602,0 -0.350747,0.15836 -0.6875,0.34375 l -1.0625,0 c 0.0085,-0.0523 0.03125,-0.15567 0.03125,-0.1875 0,-0.1 -0.05625,-0.15625 -0.15625,-0.15625 -0.100096,0 -0.381511,0.13208 -0.78125,0.34375 l -1.09375,0 c 0.0079,-0.0438 0.03125,-0.19979 0.03125,-0.21875 0,-0.07 -0.045,-0.125 -0.125,-0.125 -0.08741,0 -0.327051,0.13777 -0.6875,0.34375 l -1.09375,0 c 0.0036,-0.0245 0.03125,-0.17412 0.03125,-0.1875 0,-0.08 -0.06625,-0.15625 -0.15625,-0.15625 -0.06602,0 -0.350747,0.15836 -0.6875,0.34375 l -1.03125,0 c -0.159696,-0.19601 -0.393751,-0.34375 -0.6875,-0.34375 -0.257143,0 -0.621534,0.14125 -1,0.34375 l -1.625,0 c 0.05191,-0.19669 0.151594,-0.6659 0.21875,-0.90625 0.4,-1.39 0.45875,-1.5 0.71875,-1.5 0.09,0 0.21375,0.0325 0.34375,0.0625 0.03,0.01 0.16125,0.0113 0.28125,0.0312 l 0.40625,-0.5625 c -0.18,-0.05 -0.28625,-0.0625 -0.40625,-0.0625 z m -2.0625,2 -0.125,0.4375 c -0.01658,0.0829 -0.07955,0.32709 -0.125,0.5 l -0.40625,0 c 0.232829,-0.33732 0.366586,-0.52495 0.65625,-0.9375 z m -3.5625,0.0312 c 0.04792,0.49424 0.05768,0.53344 0.09375,0.90625 l -0.3125,0 c 0.09327,-0.35219 0.15652,-0.65367 0.21875,-0.90625 z m -0.3125,1.21875 0.4375,0 c 0.165002,1.71106 0.234273,2.51968 0.25,3 l -1.96875,0 c 0.09694,-0.0839 0.193296,-0.17284 0.28125,-0.28125 0.32,-0.41 0.4475,-0.64875 0.6875,-1.46875 0.05565,-0.20238 0.183311,-0.76724 0.3125,-1.25 z m 1.15625,0 1.5,0 -1.0625,1.5 -0.25,0.34375 c -0.04795,-0.56059 -0.117232,-1.20581 -0.1875,-1.84375 z m 1.875,0 0.53125,0 c -0.01177,0.0433 -0.01858,0.0473 -0.03125,0.0937 -0.579999,2.16 -0.69875,2.60625 -0.71875,2.65625 -0.03395,0.0976 -0.04088,0.16341 -0.0625,0.25 l -1.6875,0 0.125,-0.0937 c 0.269024,-0.57648 0.896891,-1.5239 1.84375,-2.90625 z m 1.25,0 1.21875,0 c -0.04327,0.0303 -0.08215,0.0618 -0.125,0.0937 -0.64,0.48 -1.09375,1.51 -1.09375,2.5 0,0.1525 0.02234,0.28391 0.0625,0.40625 l -0.53125,0 c -0.085,-0.0687 -0.125,-0.15625 -0.125,-0.28125 0,-0.26 0.02125,-0.315 0.28125,-1.375 0.224899,-0.91006 0.226321,-1.0081 0.3125,-1.34375 z m 1.75,0 0.8125,0 c 0.170898,0.16699 0.28125,0.4375 0.28125,0.8125 0,0.42 -0.156251,0.9475 -0.40625,1.4375 -0.183258,0.37306 -0.390025,0.6137 -0.625,0.75 l -0.71875,0 c -0.202284,-0.15051 -0.34375,-0.42859 -0.34375,-0.8125 0,-0.90421 0.472846,-1.82198 1,-2.1875 z m 1.8125,0 0.3125,0 c -0.09679,0.0581 -0.187199,0.0973 -0.28125,0.15625 -0.0062,-0.0527 -0.01781,-0.10758 -0.03125,-0.15625 z m 1.59375,0 0.65625,0 c -0.156739,0.0965 -0.24651,0.15902 -0.4375,0.28125 l -0.3125,0.1875 c 0.08661,-0.35127 0.06083,-0.32316 0.09375,-0.46875 z m 1.90625,0 0.625,0 c -0.235189,0.13263 -0.408669,0.22325 -0.71875,0.40625 0.03,-0.11 0.0525,-0.21 0.0625,-0.25 0.02736,-0.114 0.01254,-0.0764 0.03125,-0.15625 z m 1.96875,0 0.59375,0 c -0.109642,0.0658 -0.20678,0.12082 -0.3125,0.1875 l -0.09375,0.28125 c 0.549999,-0.27 0.64,-0.28125 0.75,-0.28125 0.09,0 0.15625,0.0775 0.15625,0.1875 0,0.13876 -0.279173,1.30952 -0.625,2.625 l -0.625,0 c 0.235183,-0.15635 0.459135,-0.32696 0.71875,-0.53125 l 0,-0.21875 c -0.1,0.05 -0.1825,0.12875 -0.3125,0.21875 -0.36,0.23 -0.53625,0.28125 -0.65625,0.28125 -0.11,0 -0.1875,-0.08 -0.1875,-0.25 0,-0.22 0.14375,-0.8 0.34375,-1.5 0.140662,-0.48294 0.191638,-0.77357 0.25,-1 z m 1.84375,0 0.6875,0 c -0.156739,0.0965 -0.24651,0.15902 -0.4375,0.28125 l -0.34375,0.1875 c 0.08661,-0.35127 0.06083,-0.32316 0.09375,-0.46875 z m 1.90625,0 0.65625,0 c -0.235189,0.13263 -0.408669,0.22325 -0.71875,0.40625 0.03,-0.11 0.02125,-0.21 0.03125,-0.25 0.02711,-0.11297 0.01263,-0.0768 0.03125,-0.15625 z m 2,0 0.53125,0 c -0.123387,0.0714 -0.208641,0.10708 -0.34375,0.1875 l -0.03125,0.28125 c 0.469999,-0.24 0.5775,-0.28125 0.6875,-0.28125 0.1,0 0.15625,0.035 0.15625,0.125 0,0.18 -0.0725,0.495 -0.3125,1.375 -0.07836,0.28407 -0.113525,0.42426 -0.15625,0.59375 -0.09141,0.0485 -0.196266,0.10703 -0.3125,0.1875 -0.36,0.23 -0.505001,0.28125 -0.625,0.28125 -0.11,0 -0.1875,-0.08 -0.1875,-0.25 0,-0.22 0.1125,-0.8 0.3125,-1.5 0.140684,-0.48302 0.222889,-0.77357 0.28125,-1 z m 1.75,0 1.46875,0 -0.5625,2.1875 c -0.999999,0.62 -1.048751,0.625 -1.21875,0.625 -0.13,0 -0.21875,-0.1325 -0.21875,-0.3125 0,-0.22 0.09125,-0.665 0.28125,-1.375 0.169657,-0.67185 0.191037,-0.86172 0.25,-1.125 z m -8.4375,0.125 c 0.08,0 0.15625,0.0675 0.15625,0.1875 0,0.22 -0.105,0.6175 -0.375,1.6875 -0.135029,0.52324 -0.173095,0.79343 -0.1875,1 l -1.375,0 0.5625,-2.21875 c 0.579999,-0.37 1.09875,-0.65625 1.21875,-0.65625 z m 5.75,0 c 0.08,0 0.125,0.0675 0.125,0.1875 0,0.22 -0.07375,0.6175 -0.34375,1.6875 -0.135029,0.52324 -0.173095,0.79343 -0.1875,1 l -1.375,0 0.5625,-2.21875 c 0.579999,-0.37 1.09875,-0.65625 1.21875,-0.65625 z m -9.625,0.0625 c 0.09,0 0.15625,0.0775 0.15625,0.1875 0,0.13876 -0.279173,1.30952 -0.625,2.625 l -1.5,0 c 0.278424,-0.18398 0.530661,-0.33255 0.65625,-0.5 0.378048,-0.51037 0.686238,-1.41361 0.71875,-2.09375 0.392262,-0.19018 0.496838,-0.21875 0.59375,-0.21875 z m 1.9375,0 c 0.08,0 0.125,0.0888 0.125,0.21875 0,0.25706 -0.280902,1.41969 -0.625,2.59375 l -1.28125,0 0.5625,-2.125 c 0.669999,-0.45 1.08875,-0.6875 1.21875,-0.6875 z m 5.75,0 c 0.08,0 0.125,0.0888 0.125,0.21875 0,0.25723 -0.311828,1.41886 -0.65625,2.59375 l -1.25,0 0.5625,-2.125 c 0.669999,-0.45 1.08875,-0.6875 1.21875,-0.6875 z m 5.5,2.28125 c -0.06128,0.29511 -0.08139,0.32209 -0.125,0.53125 l -0.65625,0 c 0.254388,-0.1643 0.489061,-0.32114 0.78125,-0.53125 z m -2.1875,0.0937 c -0.04271,0.19337 -0.02946,0.31352 -0.03125,0.4375 l -0.5625,0 c 0.194069,-0.12901 0.38488,-0.27703 0.59375,-0.4375 z"
       id="path3011-1-7-5"
       inkscape:connector-curvature="0" />
    <path
       style="font-size:medium;font-style:normal;font-variant:normal;font-weight:normal;font-stretch:normal;text-indent:0;text-align:start;text-decoration:none;line-height:normal;letter-spacing:normal;word-spacing:normal;text-transform:none;direction:ltr;block-progression:tb;writing-mode:lr-tb;text-anchor:start;baseline-shift:baseline;color:#000000;fill:none;stroke:#000000;stroke-width:0.01;stroke-miterlimit:4;stroke-opacity:1;stroke-dasharray:none;marker:none;visibility:visible;display:inline;overflow:visible;enable-background:accumulate;font-family:Sans;-inkscape-font-specification:Sans"
       d="m 81.390725,170.68537 c -0.04,-0.05 -0.095,-0.12625 -0.125,-0.15625 -0.04,-0.04 -0.0762,-0.11875 -0.15625,-0.21875 -0.04,-0.05 -0.0962,-0.0975 -0.15625,-0.1875 -0.03,-0.04 -0.0737,-0.085 -0.0937,-0.125 -0.17558,0.0559 -0.32349,0.14528 -0.53125,0.28125 l -1.125,-0.25 c -0.0819,-0.16989 -0.20278,-0.39489 -0.34375,-0.625 l 0,-0.625 c 0.14241,0.0327 0.28521,0.0625 0.34375,0.0625 0.1,0 0.125,-0.0875 0.125,-0.1875 0,-0.11581 -0.18251,-0.47729 -0.46875,-1 l 0,-0.90625 c 0.11624,0.0252 0.34348,0.0937 0.375,0.0937 0.07,0 0.0937,-0.045 0.0937,-0.125 0,-0.10159 -0.18702,-0.43104 -0.46875,-0.90625 l 0,-0.9375 c 0.0709,0.0142 0.31915,0.0625 0.34375,0.0625 0.08,0 0.125,-0.035 0.125,-0.125 0,-0.0815 -0.21298,-0.49156 -0.46875,-0.9375 l 0,-1.15625 c 0.78334,0.11836 1.61623,0.25527 2.21875,0.375 l 0.0937,-0.125 c -0.04,-0.04 -0.085,-0.095 -0.125,-0.125 -0.16,-0.16 -0.1875,-0.23625 -0.1875,-0.40625 0,-0.12 -0.007,-0.18375 0.0625,-0.59375 0.07,-0.46 0.0937,-0.70625 0.0937,-0.90625 0,-0.46 -0.2275,-0.93625 -0.6875,-1.40625 -0.50999,-0.53 -0.97,-0.75 -1.5,-0.75 -0.23,0 -0.36625,0.015 -0.65625,0.125 l 0.375,0.75 c 0.47,-0.16 0.7075,-0.21875 0.9375,-0.21875 0.57,0 0.90625,0.42625 0.90625,1.15625 0,0.11 0.01,0.235 0,0.375 l -0.0625,0.40625 0,0.15625 c -0.02,0.17 -0.0425,0.23 -0.0625,0.5 l -2.21875,-1.71875 c -0.53999,-0.42 -1.3125,-1.08375 -1.5625,-1.34375 -0.39,-0.4 -0.53125,-0.69625 -0.53125,-1.15625 0,-0.17 0.002,-0.2575 0.0625,-0.4375 l -0.6875,-0.375 c -0.07,0.23 -0.0937,0.35125 -0.0937,0.53125 0,0.28603 0.0659,0.52396 0.25,0.8125 l 0,3.1875 c -0.0538,-0.005 -0.11752,-0.0312 -0.15625,-0.0312 -0.12,0 -0.21875,0.12 -0.21875,0.25 0,0.07 0.001,0.16125 0.0312,0.28125 0.0821,0.43773 0.14426,0.87478 0.21875,1.3125 -0.0804,-0.0214 -0.13778,-0.0407 -0.21875,-0.0625 l 0.25,0.71875 0.0937,0.0312 0,1.21875 c -0.11911,-0.0357 -0.2263,-0.0572 -0.34375,-0.0937 l 0.25,0.78125 0.0937,0.0312 0,1.40625 c -0.14247,0.0203 -0.2386,0.0732 -0.34375,0.21875 0.10715,0.21801 0.22184,0.42149 0.34375,0.625 l 0,0.75 c -0.24,0 -0.375,0.11 -0.375,0.25 0,0.17 0.12875,0.43875 0.46875,0.96875 0.12,0.19 0.245,0.3725 0.375,0.5625 0.05,0.09 0.0962,0.18125 0.15625,0.28125 l 0.28125,0.0312 c -0.50984,-0.94999 -0.53125,-0.96375 -0.53125,-1.09375 0,-0.11 0.11125,-0.1875 0.28125,-0.1875 0.1,0 0.31125,0.0337 0.53125,0.0937 2.1,0.51 2.4825,0.625 2.5625,0.625 0.06,0 0.0937,-0.055 0.0937,-0.125 0,-0.005 6e-4,-0.0256 0,-0.0312 l 1,0.21875 c 0.11216,0.13208 0.19015,0.22703 0.375,0.46875 0.12,-0.06 0.22,-0.105 0.25,-0.125 0.12,-0.06 0.1225,-0.0762 0.3125,-0.15625 0.04,-0.02 0.075,-0.0425 0.125,-0.0625 z m -1.375,-8.46875 -2.53125,-0.40625 0,-1.53125 2.53125,1.9375 z m -1.46875,0.46875 0,0.65625 c -0.0204,-0.0328 -0.0422,-0.0615 -0.0625,-0.0937 l -0.25,-0.0937 c 0.27,0.55 0.28125,0.64 0.28125,0.75 0,0.09 -0.0775,0.15625 -0.1875,0.15625 -0.13647,0 -1.27485,-0.28735 -2.5625,-0.625 l 0,-1 c 0.0674,-0.0349 0.16029,-0.0625 0.28125,-0.0625 0.35278,0 1.37408,0.14769 2.5,0.3125 z m 0,2.09375 0,0.5 c -0.0537,-0.0853 -0.0651,-0.12511 -0.125,-0.21875 l -0.1875,-0.34375 c 0.23418,0.0577 0.17699,0.0303 0.3125,0.0625 z m 0,1.90625 0,0.40625 c -0.0934,-0.16224 -0.13725,-0.24644 -0.25,-0.4375 0.11,0.03 0.17875,0.0213 0.21875,0.0312 0.0208,0.005 0.0118,-0.005 0.0312,0 z m 0,1.03125 0,0.125 c -0.0285,0.0413 -0.0732,0.0625 -0.15625,0.0625 -0.22,0 -0.64875,-0.0737 -1.71875,-0.34375 -0.47664,-0.123 -0.70793,-0.16725 -0.90625,-0.1875 l 0,-1.34375 2.125,0.53125 c 0.34357,0.53858 0.61754,0.99091 0.65625,1.15625 z m 0,0.96875 0,0.25 c -0.0385,-0.0585 -0.0529,-0.0951 -0.0937,-0.15625 l -0.28125,0 c 0.32,0.59 0.34375,0.62875 0.34375,0.71875 0,0.08 -0.0675,0.125 -0.1875,0.125 -0.13,0 -0.27375,-0.0375 -0.84375,-0.1875 -0.62846,-0.16878 -0.8553,-0.21192 -1.125,-0.28125 -0.0403,-0.0674 -0.0694,-0.13845 -0.125,-0.21875 -0.23,-0.36 -0.3125,-0.505 -0.3125,-0.625 0,-0.11 0.11125,-0.1875 0.28125,-0.1875 0.22,0 0.80001,0.1125 1.5,0.3125 0.40921,0.11919 0.62481,0.19149 0.84375,0.25 z m -0.0312,-2.84375 c 0,0.08 -0.0888,0.125 -0.21875,0.125 -0.2522,0 -1.38047,-0.28989 -2.53125,-0.625 l 0,-1.25 2.0625,0.53125 c 0.45,0.67 0.6875,1.08875 0.6875,1.21875 z m -1.4375,-5.875 c 0,0.79 -0.001,1.39125 -0.0312,1.78125 -0.12,-0.02 -0.22375,-0.0213 -0.34375,-0.0312 -0.13,-0.02 -0.32125,-0.0637 -0.53125,-0.0937 -0.1767,-0.0186 -0.35825,-0.0507 -0.40625,-0.0625 l 0,-2.875 c 0.28492,0.33241 0.67358,0.72273 1.3125,1.28125 z m -1,9.09375 c -0.13269,-0.0325 -0.24491,-0.0515 -0.3125,-0.0625 l 0,-0.34375 c 0.0925,0.13564 0.20485,0.26347 0.3125,0.40625 z"
       id="path3894"
       inkscape:connector-curvature="0" />
  </g>
</svg>
